<svg width="24" height="24" viewBox="0 0 24 24" fill="none" xmlns="http://www.w3.org/2000/svg">
<path fill-rule="evenodd" clip-rule="evenodd" d="M7 3.5C7 2.94772 6.55228 2.5 6 2.5C5.44772 2.5 5 2.94772 5 3.5V8.91604C3.2341 9.6876 2 11.4497 2 13.5V16.5C2 17.6046 2.89543 18.5 4 18.5H5V20.5C5 21.0523 5.44772 21.5 6 21.5C6.55228 21.5 7 21.0523 7 20.5V18.5H17V20.5C17 21.0523 17.4477 21.5 18 21.5C18.5523 21.5 19 21.0523 19 20.5V18.5H20C21.1046 18.5 22 17.6046 22 16.5V13.5C22 11.4497 20.7659 9.6876 19 8.91604V3.5C19 2.94772 18.5523 2.5 18 2.5C17.4477 2.5 17 2.94772 17 3.5V5H7V3.5ZM7 7V8.5H17V7H7ZM20 13.5V16.5H4V13.5C4 11.8431 5.34315 10.5 7 10.5H17C18.6569 10.5 20 11.8431 20 13.5Z" fill="#F04438"/>
</svg>
