<svg width="20" height="20" viewBox="0 0 20 20" fill="none" xmlns="http://www.w3.org/2000/svg">
<path fill-rule="evenodd" clip-rule="evenodd" d="M7.5 2.50033C7.5 2.04009 7.1269 1.66699 6.66667 1.66699C6.20643 1.66699 5.83333 2.04009 5.83333 2.50033H5C3.61929 2.50033 2.5 3.61961 2.5 5.00033V15.8337C2.5 17.2144 3.61929 18.3337 5 18.3337H15C16.3807 18.3337 17.5 17.2144 17.5 15.8337V5.00033C17.5 3.61961 16.3807 2.50033 15 2.50033H14.1667C14.1667 2.04009 13.7936 1.66699 13.3333 1.66699C12.8731 1.66699 12.5 2.04009 12.5 2.50033H7.5ZM15.8333 5.83366V5.00033C15.8333 4.54009 15.4602 4.16699 15 4.16699H14.1667C14.1667 4.62723 13.7936 5.00033 13.3333 5.00033C12.8731 5.00033 12.5 4.62723 12.5 4.16699H7.5C7.5 4.62723 7.1269 5.00033 6.66667 5.00033C6.20643 5.00033 5.83333 4.62723 5.83333 4.16699H5C4.53976 4.16699 4.16667 4.54009 4.16667 5.00033V5.83366H15.8333ZM4.16667 7.50033V15.8337C4.16667 16.2939 4.53976 16.667 5 16.667H15C15.4602 16.667 15.8333 16.2939 15.8333 15.8337V7.50033H4.16667Z" fill="#667085"/>
</svg>
