<svg width="24" height="25" viewBox="0 0 24 25" fill="none" xmlns="http://www.w3.org/2000/svg">
<path fill-rule="evenodd" clip-rule="evenodd" d="M6.638 4.45531C6.45691 3.51363 5.63292 2.83301 4.67398 2.83301H3C2.44772 2.83301 2 3.28072 2 3.83301C2 4.38529 2.44772 4.83301 3 4.83301L4.67398 4.83301L6.55002 14.5884C6.91221 16.4718 8.56018 17.833 10.478 17.833H16.6873C18.5044 17.833 20.0932 16.6082 20.5556 14.851L21.8068 10.0965C22.3074 8.19423 20.8726 6.33301 18.9056 6.33301H6.99909L6.638 4.45531ZM7.38371 8.33301L8.51403 14.2107C8.69513 15.1524 9.51911 15.833 10.478 15.833H16.6873C17.5959 15.833 18.3903 15.2206 18.6215 14.342L19.8727 9.5875C20.0395 8.95342 19.5613 8.33301 18.9056 8.33301H7.38371Z" fill="#0D894F"/>
<path d="M8.74997 21.833C7.92154 21.833 7.24997 21.1614 7.24997 20.333C7.24997 19.5046 7.92154 18.833 8.74997 18.833C9.5784 18.833 10.25 19.5046 10.25 20.333C10.25 21.1614 9.5784 21.833 8.74997 21.833Z" fill="#0D894F"/>
<path d="M17.5 21.833C16.6715 21.833 16 21.1614 16 20.333C16 19.5046 16.6715 18.833 17.5 18.833C18.3284 18.833 19 19.5046 19 20.333C19 21.1614 18.3284 21.833 17.5 21.833Z" fill="#0D894F"/>
</svg>
