<svg width="20" height="20" viewBox="0 0 20 20" fill="none" xmlns="http://www.w3.org/2000/svg">
<path d="M11.6668 4.99967C11.6668 5.92015 10.9206 6.66634 10.0002 6.66634C9.07969 6.66634 8.3335 5.92015 8.3335 4.99967C8.3335 4.0792 9.07969 3.33301 10.0002 3.33301C10.9206 3.33301 11.6668 4.0792 11.6668 4.99967Z" fill="#858D9D"/>
<path d="M11.6668 9.99967C11.6668 10.9201 10.9206 11.6663 10.0002 11.6663C9.07969 11.6663 8.3335 10.9201 8.3335 9.99967C8.3335 9.0792 9.07969 8.33301 10.0002 8.33301C10.9206 8.33301 11.6668 9.0792 11.6668 9.99967Z" fill="#858D9D"/>
<path d="M10.0002 16.6663C10.9206 16.6663 11.6668 15.9201 11.6668 14.9997C11.6668 14.0792 10.9206 13.333 10.0002 13.333C9.07969 13.333 8.3335 14.0792 8.3335 14.9997C8.3335 15.9201 9.07969 16.6663 10.0002 16.6663Z" fill="#858D9D"/>
</svg>
