<svg width="20" height="20" viewBox="0 0 20 20" fill="none" xmlns="http://www.w3.org/2000/svg">
<path fill-rule="evenodd" clip-rule="evenodd" d="M10.0002 4.16699C15.1085 4.16699 17.5258 7.59196 18.3768 9.19314C18.6477 9.70299 18.6477 10.2977 18.3768 10.8075C17.5258 12.4087 15.1085 15.8337 10.0002 15.8337C4.89188 15.8337 2.4746 12.4087 1.62363 10.8075C1.35267 10.2977 1.35267 9.70299 1.62363 9.19314C2.4746 7.59196 4.89188 4.16699 10.0002 4.16699ZM5.69716 7.06507C4.31361 7.98178 3.50572 9.20318 3.09536 9.97531C3.09078 9.98393 3.08889 9.98991 3.08807 9.9932C3.08724 9.99654 3.08708 10.0003 3.08708 10.0003C3.08708 10.0003 3.08724 10.0041 3.08807 10.0075C3.08889 10.0107 3.09078 10.0167 3.09536 10.0253C3.50572 10.7975 4.31361 12.0189 5.69716 12.9356C5.12594 12.0998 4.79188 11.0891 4.79188 10.0003C4.79188 8.91158 5.12594 7.90086 5.69716 7.06507ZM14.3033 12.9356C15.6868 12.0189 16.4947 10.7975 16.905 10.0253C16.9096 10.0167 16.9115 10.0107 16.9123 10.0075C16.9129 10.0053 16.9133 10.0022 16.9133 10.0022L16.9133 10.0003L16.913 9.99666L16.9123 9.9932C16.9115 9.98991 16.9096 9.98393 16.905 9.97531C16.4947 9.20318 15.6868 7.98179 14.3033 7.06508C14.8745 7.90086 15.2085 8.91158 15.2085 10.0003C15.2085 11.0891 14.8745 12.0998 14.3033 12.9356ZM6.45854 10.0003C6.45854 8.04432 8.0442 6.45866 10.0002 6.45866C11.9562 6.45866 13.5419 8.04432 13.5419 10.0003C13.5419 11.9563 11.9562 13.542 10.0002 13.542C8.0442 13.542 6.45854 11.9563 6.45854 10.0003Z" fill="#667085"/>
</svg>
