<svg width="86" height="88" viewBox="0 0 86 88" fill="none" xmlns="http://www.w3.org/2000/svg">
<path fill-rule="evenodd" clip-rule="evenodd" d="M42.8214 85.6429C66.4711 85.6429 85.6429 66.4711 85.6429 42.8214C85.6429 19.1718 66.4711 0 42.8214 0C19.1718 0 0 19.1718 0 42.8214C0 66.4711 19.1718 85.6429 42.8214 85.6429Z" fill="#D8D8D8"/>
<path d="M31.7231 65.0179L14.1426 76.6071L18.464 80.9286L43.9997 88L63.6426 83.2857L74.2497 76.6071L57.4159 67.1589L50.9927 62.8768V60.7357L53.1338 56.4536L57.4159 52.1714L59.557 41.4661V30.7607L55.2749 22.1964L46.7106 17.9143H38.1463L29.582 22.1964L25.2999 32.9018L27.4409 47.8893L29.8569 56.4536L33.8642 60.7357V62.8768L31.7231 65.0179Z" fill="#F9F9F9"/>
<path d="M14.9873 74.9375C14.9873 74.9375 29.9748 68.5143 34.2569 64.2321C38.5391 59.95 25.6927 59.95 25.6927 38.5393C25.6927 17.1286 42.8212 17.1286 42.8212 17.1286C42.8212 17.1286 59.9498 17.1286 59.9498 38.5393C59.9498 59.95 47.1034 59.95 51.3855 64.2321C55.6677 68.5143 70.6552 74.9375 70.6552 74.9375" stroke="#F9F9F9" stroke-width="4" stroke-linecap="round"/>
</svg>
