<svg width="24" height="24" viewBox="0 0 24 24" fill="none" xmlns="http://www.w3.org/2000/svg">
<path fill-rule="evenodd" clip-rule="evenodd" d="M2.86956 2C2.38932 2 2 2.38932 2 2.86956C2 3.34981 2.38932 3.73913 2.86956 3.73913H4.71694L6.35545 16.028C6.41305 16.46 6.78156 16.7826 7.21739 16.7826H19.3913C19.8058 16.7826 20.1627 16.49 20.244 16.0836L21.9831 7.38792C22.0342 7.13247 21.9681 6.86756 21.8029 6.66609C21.6377 6.46463 21.3909 6.34782 21.1304 6.34782H6.81929L6.3402 2.75464C6.2826 2.32263 5.91409 2 5.47826 2H2.86956ZM7.97871 15.0435L7.05117 8.08695H20.0697L18.6784 15.0435H7.97871Z" fill="#161C24"/>
<path d="M7.21739 18.5217C6.25689 18.5217 5.47826 19.3004 5.47826 20.2609C5.47826 21.2214 6.25689 22 7.21739 22C8.17788 22 8.95652 21.2214 8.95652 20.2609C8.95652 19.3004 8.17788 18.5217 7.21739 18.5217Z" fill="#161C24"/>
<path d="M17.6522 20.2609C17.6522 19.3004 18.4308 18.5217 19.3913 18.5217C20.3518 18.5217 21.1304 19.3004 21.1304 20.2609C21.1304 21.2214 20.3518 22 19.3913 22C18.4308 22 17.6522 21.2214 17.6522 20.2609Z" fill="#161C24"/>
</svg>
