<svg width="16" height="16" viewBox="0 0 16 16" fill="none" xmlns="http://www.w3.org/2000/svg">
<path fill-rule="evenodd" clip-rule="evenodd" d="M3.07017 4.11079C3.31686 5.06925 4.18692 5.77745 5.22238 5.77745C6.44968 5.77745 7.44461 4.78253 7.44461 3.55523C7.44461 2.32793 6.44968 1.33301 5.22238 1.33301C4.18692 1.33301 3.31686 2.04121 3.07017 2.99967H1.3335V4.11079H3.07017ZM4.11127 3.55523C4.11127 2.94158 4.60874 2.44412 5.22238 2.44412C5.83603 2.44412 6.3335 2.94158 6.3335 3.55523C6.3335 4.16888 5.83603 4.66634 5.22238 4.66634C4.60874 4.66634 4.11127 4.16888 4.11127 3.55523Z" fill="#2D3239"/>
<path fill-rule="evenodd" clip-rule="evenodd" d="M9.66683 10.2219C8.63136 10.2219 7.76131 9.51369 7.51462 8.55523H1.3335V7.44412H7.51462C7.76131 6.48566 8.63136 5.77745 9.66683 5.77745C10.8941 5.77745 11.8891 6.77237 11.8891 7.99967C11.8891 9.22697 10.8941 10.2219 9.66683 10.2219ZM9.66683 9.11079C9.05318 9.11079 8.55572 8.61332 8.55572 7.99967C8.55572 7.38602 9.05318 6.88856 9.66683 6.88856C10.2805 6.88856 10.7779 7.38602 10.7779 7.99967C10.7779 8.61332 10.2805 9.11079 9.66683 9.11079Z" fill="#2D3239"/>
<path fill-rule="evenodd" clip-rule="evenodd" d="M3.07017 12.9997C3.31686 13.9581 4.18692 14.6663 5.22238 14.6663C6.44968 14.6663 7.44461 13.6714 7.44461 12.4441C7.44461 11.2168 6.44968 10.2219 5.22238 10.2219C4.18692 10.2219 3.31686 10.9301 3.07017 11.8886H1.3335V12.9997H3.07017ZM4.11127 12.4441C4.11127 11.8305 4.60874 11.333 5.22238 11.333C5.83603 11.333 6.3335 11.8305 6.3335 12.4441C6.3335 13.0578 5.83603 13.5552 5.22238 13.5552C4.60874 13.5552 4.11127 13.0578 4.11127 12.4441Z" fill="#2D3239"/>
<path d="M8.55572 2.99967H14.6668V4.11079H8.55572V2.99967Z" fill="#2D3239"/>
<path d="M14.6668 7.44412H13.0002V8.55523H14.6668V7.44412Z" fill="#2D3239"/>
<path d="M14.6668 11.8886H8.55572V12.9997H14.6668V11.8886Z" fill="#2D3239"/>
</svg>
