<svg width="20" height="20" viewBox="0 0 20 20" fill="none" xmlns="http://www.w3.org/2000/svg">
<path d="M11.737 5.45989C11.4412 5.16404 11.4412 4.68437 11.737 4.38851C12.0329 4.09266 12.5125 4.09266 12.8084 4.38851L18.1108 9.69097L18.1163 9.69651C18.2505 9.8332 18.3333 10.0205 18.3333 10.2272C18.3333 10.33 18.3129 10.4279 18.2758 10.5172C18.2389 10.6066 18.1841 10.6903 18.1114 10.7629L12.8084 16.066C12.5125 16.3618 12.0329 16.3618 11.737 16.066C11.4412 15.7701 11.4412 15.2904 11.737 14.9946L15.7468 10.9848H2.42422C2.00582 10.9848 1.66665 10.6456 1.66665 10.2272C1.66665 9.80883 2.00582 9.46966 2.42422 9.46966H15.7468L11.737 5.45989Z" fill="#161C24" fill-opacity="0.9"/>
</svg>
