<svg width="16" height="16" viewBox="0 0 16 16" fill="none" xmlns="http://www.w3.org/2000/svg">
<path d="M8.6061 1.93937C8.6061 1.60466 8.33476 1.33331 8.00004 1.33331C7.66532 1.33331 7.39398 1.60466 7.39398 1.93937V7.39392H1.93943C1.60472 7.39392 1.33337 7.66526 1.33337 7.99998C1.33337 8.3347 1.60472 8.60604 1.93943 8.60604H7.39398V14.0606C7.39398 14.3953 7.66532 14.6666 8.00004 14.6666C8.33476 14.6666 8.6061 14.3953 8.6061 14.0606V8.60604H14.0606C14.3954 8.60604 14.6667 8.3347 14.6667 7.99998C14.6667 7.66526 14.3954 7.39392 14.0606 7.39392H8.6061V1.93937Z" fill="#161C24"/>
</svg>
