<svg width="24" height="24" viewBox="0 0 24 24" fill="none" xmlns="http://www.w3.org/2000/svg">
<path fill-rule="evenodd" clip-rule="evenodd" d="M15.0432 16.3052C13.6693 17.4041 11.9267 18.0612 10.0306 18.0612C5.59543 18.0612 2 14.4658 2 10.0306C2 5.59543 5.59543 2 10.0306 2C14.4658 2 18.0612 5.59543 18.0612 10.0306C18.0612 11.9268 17.4041 13.6694 16.3051 15.0433L21.9999 20.7381L20.738 22L15.0432 16.3052ZM3.78458 10.0306C3.78458 6.58103 6.58103 3.78458 10.0306 3.78458C13.4802 3.78458 16.2767 6.58103 16.2767 10.0306C16.2767 11.7129 15.6116 13.2399 14.53 14.3629L14.3629 14.53C13.2399 15.6116 11.7129 16.2767 10.0306 16.2767C6.58103 16.2767 3.78458 13.4802 3.78458 10.0306Z" fill="#161C24"/>
</svg>
