<svg width="24" height="24" viewBox="0 0 24 24" fill="none" xmlns="http://www.w3.org/2000/svg">
<path fill-rule="evenodd" clip-rule="evenodd" d="M7.45318 3.95287C8.70358 2.70247 10.3995 2 12.1678 2C13.9361 2 15.6321 2.70247 16.8825 3.95287C18.1328 5.20327 18.8353 6.89917 18.8353 8.6675V11.1678C18.8353 12.239 19.2996 12.8999 19.877 13.5543C19.9437 13.6299 20.0171 13.7107 20.0938 13.7951C20.326 14.0508 20.5886 14.3399 20.7897 14.6214C21.079 15.0263 21.3356 15.5335 21.3356 16.1684C21.3356 16.8754 20.9239 17.4252 20.4287 17.813C19.9333 18.201 19.2617 18.5067 18.4878 18.7461C16.9316 19.2276 14.7572 19.5022 12.1678 19.5022C9.5784 19.5022 7.40408 19.2276 5.84783 18.7461C5.07395 18.5067 4.40231 18.201 3.90692 17.813C3.41168 17.4252 3 16.8754 3 16.1684C3 15.5335 3.25665 15.0263 3.54592 14.6214C3.74701 14.3399 4.00959 14.0508 4.2418 13.7951C4.3185 13.7107 4.39189 13.6299 4.45865 13.5543C5.03601 12.8999 5.50031 12.239 5.50031 11.1678V8.6675C5.50031 6.89917 6.20278 5.20327 7.45318 3.95287ZM12.1678 3.66688C10.8416 3.66688 9.56964 4.19373 8.63184 5.13153C7.69404 6.06932 7.16719 7.34125 7.16719 8.6675V11.1678C7.16719 12.847 6.38133 13.8946 5.70854 14.6571C5.60029 14.7798 5.50196 14.8881 5.41187 14.9873C5.20553 15.2145 5.04243 15.3941 4.90231 15.5902C4.72276 15.8416 4.66688 16.0116 4.66688 16.1684C4.6668 16.1723 4.66434 16.289 4.93459 16.5007C5.20752 16.7144 5.66623 16.9451 6.34045 17.1537C7.68039 17.5682 9.67326 17.8353 12.1678 17.8353C14.6624 17.8353 16.6552 17.5682 17.9952 17.1537C18.6694 16.9451 19.1281 16.7144 19.401 16.5007C19.6713 16.289 19.6688 16.1723 19.6688 16.1685C19.6688 16.0117 19.6129 15.8416 19.4333 15.5902C19.2932 15.3941 19.1301 15.2145 18.9238 14.9873C18.8337 14.8881 18.7353 14.7798 18.6271 14.6571C17.9543 13.8946 17.1684 12.847 17.1684 11.1678V8.6675C17.1684 7.34125 16.6416 6.06932 15.7038 5.13153C14.766 4.19373 13.4941 3.66688 12.1678 3.66688Z" fill="#161C24"/>
<path d="M12.1678 20.3357C11.3252 20.3357 10.5335 20.3073 9.78837 20.2523C9.94722 20.759 10.2637 21.2018 10.6917 21.5161C11.1196 21.8305 11.6368 22 12.1678 22C12.6989 22 13.216 21.8305 13.644 21.5161C14.072 21.2018 14.3884 20.759 14.5473 20.2523C13.8022 20.3073 13.0104 20.3357 12.1678 20.3357Z" fill="#161C24"/>
</svg>
