<svg width="16" height="16" viewBox="0 0 16 16" fill="none" xmlns="http://www.w3.org/2000/svg">
<path d="M13.1939 8.8069C13.2393 8.54018 13.2631 8.27023 13.265 7.99967C13.2631 7.72912 13.2393 7.45917 13.1939 7.19245L14.3605 6.06523C14.4495 5.97915 14.5072 5.86582 14.5244 5.74323C14.5416 5.62064 14.5174 5.49582 14.4555 5.38856L13.6222 3.94412C13.5595 3.83727 13.4632 3.75418 13.3484 3.70785C13.2335 3.66151 13.1065 3.65453 12.9872 3.68801L11.4317 4.13245C11.0105 3.78941 10.5363 3.51715 10.0278 3.32634L9.63721 1.75412C9.60722 1.63388 9.53789 1.52712 9.44025 1.45081C9.3426 1.37451 9.22225 1.33304 9.09832 1.33301H7.43166C7.30773 1.33304 7.18738 1.37451 7.08973 1.45081C6.99209 1.52712 6.92276 1.63388 6.89277 1.75412L6.49999 3.32634C5.9922 3.51737 5.51881 3.78962 5.09832 4.13245L3.54277 3.68801C3.4235 3.65463 3.29654 3.66165 3.18168 3.70798C3.06681 3.75431 2.97051 3.83733 2.90777 3.94412L2.07443 5.38856C2.01248 5.49587 1.98817 5.62081 2.00539 5.74352C2.0226 5.86623 2.08034 5.97967 2.16943 6.06579L3.3361 7.19301C3.29071 7.45954 3.26692 7.72931 3.26499 7.99967C3.26689 8.27023 3.29068 8.54018 3.3361 8.8069L2.16943 9.93412C2.08047 10.0202 2.02281 10.1335 2.0056 10.2561C1.98839 10.3787 2.01262 10.5035 2.07443 10.6108L2.90777 12.0552C2.95657 12.1398 3.02679 12.2099 3.11135 12.2587C3.19591 12.3075 3.29182 12.3331 3.38943 12.333C3.44107 12.3328 3.49245 12.3257 3.54221 12.3119L5.09777 11.8675C5.51893 12.2105 5.99308 12.4828 6.50166 12.6736L6.89443 14.2458C6.92446 14.3656 6.99359 14.4721 7.09088 14.5482C7.18818 14.6244 7.30809 14.666 7.43166 14.6663H9.09832C9.22225 14.6663 9.3426 14.6248 9.44025 14.5485C9.53789 14.4722 9.60722 14.3655 9.63721 14.2452L10.03 12.673C10.5378 12.482 11.0112 12.2097 11.4317 11.8669L12.9872 12.3113C13.037 12.3251 13.0884 12.3322 13.14 12.3325C13.2376 12.3325 13.3335 12.3069 13.4181 12.2582C13.5026 12.2094 13.5729 12.1392 13.6217 12.0547L14.455 10.6102C14.5169 10.5029 14.5412 10.378 14.524 10.2553C14.5068 10.1326 14.4491 10.0191 14.36 9.93301L13.1939 8.8069ZM8.26499 10.2219C7.82548 10.2219 7.39583 10.0916 7.03039 9.84738C6.66495 9.6032 6.38012 9.25614 6.21192 8.85008C6.04373 8.44402 5.99972 7.99721 6.08547 7.56614C6.17121 7.13507 6.38286 6.73911 6.69364 6.42833C7.00442 6.11754 7.40039 5.9059 7.83146 5.82015C8.26252 5.73441 8.70934 5.77841 9.1154 5.94661C9.52146 6.1148 9.86852 6.39963 10.1127 6.76507C10.3569 7.13052 10.4872 7.56016 10.4872 7.99967C10.4872 8.58904 10.2531 9.15428 9.83634 9.57102C9.41959 9.98777 8.85436 10.2219 8.26499 10.2219Z" fill="white"/>
</svg>
