<svg width="16" height="16" viewBox="0 0 16 16" fill="none" xmlns="http://www.w3.org/2000/svg">
<path d="M13.194 8.80714C13.2394 8.54042 13.2632 8.27047 13.2651 7.99992C13.2632 7.72937 13.2394 7.45941 13.194 7.1927L14.3606 6.06547C14.4496 5.97939 14.5073 5.86606 14.5245 5.74347C14.5417 5.62088 14.5175 5.49606 14.4556 5.38881L13.6223 3.94436C13.5596 3.83751 13.4633 3.75443 13.3485 3.70809C13.2336 3.66175 13.1066 3.65478 12.9873 3.68825L11.4317 4.1327C11.0106 3.78966 10.5364 3.5174 10.0279 3.32659L9.6373 1.75436C9.60731 1.63412 9.53798 1.52736 9.44034 1.45106C9.34269 1.37475 9.22234 1.33329 9.09841 1.33325H7.43175C7.30782 1.33329 7.18747 1.37475 7.08982 1.45106C6.99218 1.52736 6.92285 1.63412 6.89286 1.75436L6.50008 3.32659C5.99229 3.51761 5.5189 3.78986 5.09842 4.1327L3.54286 3.68825C3.42359 3.65488 3.29663 3.6619 3.18177 3.70822C3.06691 3.75455 2.9706 3.83758 2.90786 3.94436L2.07453 5.38881C2.01257 5.49612 1.98827 5.62106 2.00548 5.74377C2.02269 5.86648 2.08044 5.97991 2.16953 6.06603L3.33619 7.19325C3.2908 7.45979 3.26702 7.72955 3.26508 7.99992C3.26699 8.27047 3.29077 8.54042 3.33619 8.80714L2.16953 9.93436C2.08057 10.0204 2.0229 10.1338 2.00569 10.2564C1.98848 10.379 2.01271 10.5038 2.07453 10.611L2.90786 12.0555C2.95667 12.14 3.02688 12.2102 3.11144 12.259C3.196 12.3077 3.29191 12.3333 3.38953 12.3333C3.44116 12.333 3.49254 12.3259 3.5423 12.3121L5.09786 11.8677C5.51902 12.2107 5.99318 12.483 6.50175 12.6738L6.89453 14.246C6.92455 14.3659 6.99368 14.4723 7.09098 14.5485C7.18827 14.6247 7.30818 14.6662 7.43175 14.6666H9.09841C9.22234 14.6666 9.34269 14.6251 9.44034 14.5488C9.53798 14.4725 9.60731 14.3657 9.6373 14.2455L10.0301 12.6733C10.5379 12.4822 11.0113 12.21 11.4317 11.8671L12.9873 12.3116C13.0371 12.3254 13.0884 12.3325 13.1401 12.3327C13.2377 12.3328 13.3336 12.3072 13.4182 12.2584C13.5027 12.2096 13.5729 12.1395 13.6217 12.0549L14.4551 10.6105C14.517 10.5032 14.5413 10.3782 14.5241 10.2555C14.5069 10.1328 14.4492 10.0194 14.3601 9.93325L13.194 8.80714ZM8.26508 10.2221C7.82557 10.2221 7.39592 10.0918 7.03048 9.84763C6.66504 9.60345 6.38021 9.25638 6.21202 8.85033C6.04382 8.44427 5.99981 7.99745 6.08556 7.56638C6.1713 7.13532 6.38295 6.73935 6.69373 6.42857C7.00452 6.11779 7.40048 5.90614 7.83155 5.8204C8.26262 5.73465 8.70943 5.77866 9.11549 5.94685C9.52155 6.11505 9.86861 6.39988 10.1128 6.76532C10.357 7.13076 10.4873 7.5604 10.4873 7.99992C10.4873 8.58929 10.2532 9.15452 9.83643 9.57127C9.41968 9.98802 8.85445 10.2221 8.26508 10.2221Z" fill="#366AE2"/>
</svg>
