<svg width="16" height="16" viewBox="0 0 16 16" fill="none" xmlns="http://www.w3.org/2000/svg">
<path d="M4.11127 7.44412C3.80445 7.44412 3.55572 7.69285 3.55572 7.99967V8.55523C3.55572 8.86205 3.80445 9.11079 4.11127 9.11079H5.22239C5.52921 9.11079 5.77794 8.86205 5.77794 8.55523V7.99967C5.77794 7.69285 5.52921 7.44412 5.22239 7.44412H4.11127Z" fill="#2D3239"/>
<path d="M7.44461 7.44412C7.13778 7.44412 6.88905 7.69285 6.88905 7.99967V8.55523C6.88905 8.86205 7.13778 9.11079 7.44461 9.11079H8.55572C8.86254 9.11079 9.11127 8.86205 9.11127 8.55523V7.99967C9.11127 7.69285 8.86254 7.44412 8.55572 7.44412H7.44461Z" fill="#2D3239"/>
<path d="M3.55572 10.7775C3.55572 10.4706 3.80445 10.2219 4.11127 10.2219H5.22239C5.52921 10.2219 5.77794 10.4706 5.77794 10.7775V11.333C5.77794 11.6398 5.52921 11.8886 5.22239 11.8886H4.11127C3.80445 11.8886 3.55572 11.6398 3.55572 11.333V10.7775Z" fill="#2D3239"/>
<path d="M7.44461 10.2219C7.13778 10.2219 6.88905 10.4706 6.88905 10.7775V11.333C6.88905 11.6398 7.13778 11.8886 7.44461 11.8886H8.55572C8.86254 11.8886 9.11127 11.6398 9.11127 11.333V10.7775C9.11127 10.4706 8.86254 10.2219 8.55572 10.2219H7.44461Z" fill="#2D3239"/>
<path d="M10.2224 7.99967C10.2224 7.69285 10.4711 7.44412 10.7779 7.44412H11.8891C12.1959 7.44412 12.4446 7.69285 12.4446 7.99967V8.55523C12.4446 8.86205 12.1959 9.11079 11.8891 9.11079H10.7779C10.4711 9.11079 10.2224 8.86205 10.2224 8.55523V7.99967Z" fill="#2D3239"/>
<path fill-rule="evenodd" clip-rule="evenodd" d="M5.22239 1.88856C5.22239 1.58174 4.97365 1.33301 4.66683 1.33301C4.36 1.33301 4.11127 1.58174 4.11127 1.88856V2.44412H3.00016C2.07969 2.44412 1.3335 3.19031 1.3335 4.11079V12.4441C1.3335 13.3646 2.07969 14.1108 3.00016 14.1108H13.0002C13.9206 14.1108 14.6668 13.3646 14.6668 12.4441V4.11079C14.6668 3.19031 13.9206 2.44412 13.0002 2.44412H11.8891V1.88856C11.8891 1.58174 11.6403 1.33301 11.3335 1.33301C11.0267 1.33301 10.7779 1.58174 10.7779 1.88856V2.44412H5.22239V1.88856ZM3.00016 3.55523C2.69334 3.55523 2.44461 3.80396 2.44461 4.11079V5.2219H13.5557V4.11079C13.5557 3.80396 13.307 3.55523 13.0002 3.55523H11.8891C11.8891 3.86205 11.6403 4.11079 11.3335 4.11079C11.0267 4.11079 10.7779 3.86205 10.7779 3.55523H5.22239C5.22239 3.86205 4.97365 4.11079 4.66683 4.11079C4.36 4.11079 4.11127 3.86205 4.11127 3.55523H3.00016ZM3.00016 12.9997C2.69334 12.9997 2.44461 12.7509 2.44461 12.4441V6.33301H13.5557V12.4441C13.5557 12.7509 13.307 12.9997 13.0002 12.9997H3.00016Z" fill="#2D3239"/>
</svg>
