<svg width="25" height="24" viewBox="0 0 25 24" fill="none" xmlns="http://www.w3.org/2000/svg">
<path d="M20.2909 13.2108C20.3591 12.8108 20.3947 12.4058 20.3976 12C20.3947 11.5942 20.3591 11.1892 20.2909 10.7892L22.0409 9.09833C22.1744 8.96921 22.2609 8.79922 22.2867 8.61533C22.3125 8.43145 22.2762 8.24421 22.1834 8.08333L20.9334 5.91667C20.8394 5.75639 20.695 5.63176 20.5227 5.56226C20.3503 5.49275 20.1598 5.48229 19.9809 5.5325L17.6476 6.19917C17.0159 5.68461 16.3046 5.27622 15.5418 4.99L14.9559 2.63167C14.911 2.45131 14.807 2.29116 14.6605 2.17671C14.514 2.06225 14.3335 2.00005 14.1476 2H11.6476C11.4617 2.00005 11.2812 2.06225 11.1347 2.17671C10.9883 2.29116 10.8843 2.45131 10.8393 2.63167L10.2501 4.99C9.48842 5.27654 8.77834 5.68492 8.14761 6.19917L5.81427 5.5325C5.63537 5.48244 5.44493 5.49297 5.27263 5.56246C5.10034 5.63195 4.95588 5.75649 4.86177 5.91667L3.61177 8.08333C3.51884 8.2443 3.48238 8.43171 3.5082 8.61577C3.53402 8.79984 3.62064 8.96999 3.75427 9.09917L5.50427 10.79C5.43618 11.1898 5.40051 11.5945 5.39761 12C5.40046 12.4058 5.43614 12.8108 5.50427 13.2108L3.75427 14.9017C3.62083 15.0308 3.53434 15.2008 3.50853 15.3847C3.48271 15.5686 3.51905 15.7558 3.61177 15.9167L4.86177 18.0833C4.93498 18.2101 5.04031 18.3154 5.16715 18.3886C5.29398 18.4617 5.43786 18.5001 5.58427 18.5C5.66173 18.4997 5.73879 18.489 5.81344 18.4683L8.14677 17.8017C8.77852 18.3162 9.48975 18.7246 10.2526 19.0108L10.8418 21.3692C10.8868 21.549 10.9905 21.7086 11.1364 21.8229C11.2824 21.9371 11.4623 21.9994 11.6476 22H14.1476C14.3335 21.9999 14.514 21.9377 14.6605 21.8233C14.807 21.7088 14.911 21.5487 14.9559 21.3683L15.5451 19.01C16.3068 18.7235 17.0169 18.3151 17.6476 17.8008L19.9809 18.4675C20.0556 18.4882 20.1327 18.4988 20.2101 18.4992C20.3565 18.4993 20.5004 18.4609 20.6272 18.3877C20.7541 18.3146 20.8594 18.2093 20.9326 18.0825L22.1826 15.9158C22.2755 15.7549 22.312 15.5675 22.2862 15.3834C22.2604 15.1993 22.1737 15.0292 22.0401 14.9L20.2909 13.2108ZM12.8976 15.3333C12.2383 15.3333 11.5939 15.1378 11.0457 14.7716C10.4975 14.4053 10.0703 13.8847 9.81801 13.2756C9.56572 12.6665 9.4997 11.9963 9.62832 11.3497C9.75694 10.7031 10.0744 10.1092 10.5406 9.64298C11.0068 9.1768 11.6007 8.85933 12.2473 8.73072C12.8939 8.6021 13.5641 8.66811 14.1732 8.9204C14.7823 9.17269 15.3029 9.59994 15.6692 10.1481C16.0354 10.6963 16.2309 11.3407 16.2309 12C16.2309 12.8841 15.8798 13.7319 15.2546 14.357C14.6295 14.9821 13.7817 15.3333 12.8976 15.3333Z" fill="white"/>
</svg>
