<svg width="16" height="16" viewBox="0 0 16 16" fill="none" xmlns="http://www.w3.org/2000/svg">
<path fill-rule="evenodd" clip-rule="evenodd" d="M2.55074 7.32898C2.48167 7.42812 2.44464 7.54605 2.44464 7.66689C2.44464 7.78774 2.48168 7.90567 2.55075 8.00481C2.97099 8.59961 3.69148 9.49896 4.63996 10.2451C5.59024 10.9927 6.72946 11.5559 8.00016 11.5559C9.27087 11.5559 10.4101 10.9927 11.3604 10.2451C12.3088 9.49896 13.0293 8.59962 13.4496 8.00482C13.5186 7.90568 13.5557 7.78774 13.5557 7.66689C13.5557 7.54604 13.5187 7.42811 13.4496 7.32897C13.0293 6.73418 12.3089 5.83482 11.3604 5.08866C10.4101 4.34108 9.27087 3.77789 8.00016 3.77789C6.72946 3.77789 5.59024 4.34108 4.63996 5.08866C3.69147 5.83483 2.97098 6.73419 2.55074 7.32898ZM3.95294 4.21536C5.0166 3.37859 6.39245 2.66675 8.00016 2.66675C9.60787 2.66675 10.9837 3.37859 12.0474 4.21536C13.1122 5.05305 13.9042 6.04665 14.358 6.68912L14.3595 6.69121C14.5595 6.97724 14.6668 7.31785 14.6668 7.66689C14.6668 8.01593 14.5595 8.35654 14.3595 8.64256L14.358 8.64465C13.9042 9.28712 13.1122 10.2807 12.0474 11.1184C10.9837 11.9552 9.60787 12.667 8.00016 12.667C6.39245 12.667 5.0166 11.9552 3.95294 11.1184C2.88812 10.2807 2.09612 9.28712 1.64232 8.64465L1.64085 8.64256C1.44079 8.35654 1.3335 8.01593 1.3335 7.66689C1.3335 7.31784 1.44079 6.97724 1.64085 6.69122L1.64232 6.68912C2.09611 6.04665 2.88812 5.05305 3.95294 4.21536Z" fill="#161C24" fill-opacity="0.64"/>
<path fill-rule="evenodd" clip-rule="evenodd" d="M8.00021 6.00017C7.07971 6.00017 6.3335 6.74639 6.3335 7.66689C6.3335 8.58739 7.07971 9.3336 8.00021 9.3336C8.92071 9.3336 9.66693 8.58739 9.66693 7.66689C9.66693 6.74639 8.92071 6.00017 8.00021 6.00017ZM5.22236 7.66689C5.22236 6.13272 6.46605 4.88903 8.00021 4.88903C9.53438 4.88903 10.7781 6.13272 10.7781 7.66689C10.7781 9.20105 9.53438 10.4447 8.00021 10.4447C6.46605 10.4447 5.22236 9.20105 5.22236 7.66689Z" fill="#161C24" fill-opacity="0.64"/>
</svg>
