<svg width="16" height="16" viewBox="0 0 16 16" fill="none" xmlns="http://www.w3.org/2000/svg">
<path fill-rule="evenodd" clip-rule="evenodd" d="M2 1.88856C2 1.58174 2.24873 1.33301 2.55556 1.33301H12C12.3068 1.33301 12.5556 1.58174 12.5556 1.88856V10.2219C12.5556 10.5287 12.3068 10.7775 12 10.7775C11.6932 10.7775 11.4444 10.5287 11.4444 10.2219V2.44412H3.11111V12.7219C3.11111 13.1634 3.45412 13.5245 3.88833 13.5534L4.77779 11.8886C4.77779 11.5817 5.02652 11.333 5.33334 11.333H13.6667C13.9735 11.333 14.2222 11.5817 14.2222 11.8886V12.7219C14.2222 13.7959 13.3518 14.6663 12.2778 14.6663H3.94455C2.8705 14.6663 2 13.7959 2 12.7219V1.88856ZM5.8889 12.7219C5.8889 13.0491 5.81862 13.3247 5.70631 13.5552H12.2778C12.7382 13.5552 13.1111 13.1823 13.1111 12.7219V12.4441H5.8889V12.7219Z" fill="white"/>
<path d="M5.33333 4.11079C5.02651 4.11079 4.77778 4.35952 4.77778 4.66634C4.77778 4.97317 5.02651 5.2219 5.33333 5.2219H9.22222C9.52905 5.2219 9.77778 4.97317 9.77778 4.66634C9.77778 4.35952 9.52905 4.11079 9.22222 4.11079H5.33333Z" fill="white"/>
<path d="M4.77778 6.88856C4.77778 6.58174 5.02651 6.33301 5.33333 6.33301H9.22222C9.52905 6.33301 9.77778 6.58174 9.77778 6.88856C9.77778 7.19539 9.52905 7.44412 9.22222 7.44412H5.33333C5.02651 7.44412 4.77778 7.19539 4.77778 6.88856Z" fill="white"/>
<path d="M5.33333 8.55523C5.02651 8.55523 4.77778 8.80396 4.77778 9.11079C4.77778 9.41761 5.02651 9.66634 5.33333 9.66634H9.22222C9.52905 9.66634 9.77778 9.41761 9.77778 9.11079C9.77778 8.80396 9.52905 8.55523 9.22222 8.55523H5.33333Z" fill="white"/>
</svg>
