<svg width="20" height="20" viewBox="0 0 20 20" fill="none" xmlns="http://www.w3.org/2000/svg">
<path d="M16.4925 11.009C16.5493 10.6756 16.579 10.3381 16.5814 9.99996C16.579 9.66177 16.5493 9.32433 16.4925 8.99093L17.9508 7.5819C18.062 7.4743 18.1341 7.33264 18.1556 7.1794C18.1771 7.02617 18.1468 6.87014 18.0696 6.73607L17.0279 4.93051C16.9495 4.79695 16.8292 4.69309 16.6856 4.63517C16.542 4.57725 16.3832 4.56853 16.2341 4.61038L14.2897 5.16593C13.7632 4.73713 13.1705 4.39681 12.5348 4.15829L12.0466 2.19301C12.0091 2.04271 11.9225 1.90926 11.8004 1.81388C11.6784 1.7185 11.5279 1.66667 11.373 1.66663H9.28969C9.13479 1.66667 8.98434 1.7185 8.86229 1.81388C8.74023 1.90926 8.65357 2.04271 8.61608 2.19301L8.12511 4.15829C7.49037 4.39708 6.89864 4.73739 6.37303 5.16593L4.42858 4.61038C4.27949 4.56866 4.12079 4.57743 3.97722 4.63534C3.83364 4.69325 3.71326 4.79703 3.63483 4.93051L2.59316 6.73607C2.51572 6.87021 2.48534 7.02638 2.50686 7.17977C2.52837 7.33316 2.60055 7.47495 2.71191 7.5826L4.17025 8.99163C4.1135 9.32479 4.08378 9.662 4.08136 9.99996C4.08374 10.3381 4.11347 10.6756 4.17025 11.009L2.71191 12.418C2.60071 12.5256 2.52864 12.6673 2.50712 12.8205C2.48561 12.9738 2.51589 13.1298 2.59316 13.2638L3.63483 15.0694C3.69584 15.1751 3.78361 15.2628 3.88931 15.3238C3.99501 15.3847 4.1149 15.4167 4.23691 15.4166C4.30146 15.4163 4.36568 15.4075 4.42789 15.3902L6.37233 14.8347C6.89879 15.2635 7.49148 15.6038 8.12719 15.8423L8.61816 17.8076C8.6557 17.9574 8.74211 18.0905 8.86373 18.1857C8.98535 18.2809 9.13524 18.3328 9.28969 18.3333H11.373C11.5279 18.3333 11.6784 18.2814 11.8004 18.186C11.9225 18.0907 12.0091 17.9572 12.0466 17.8069L12.5376 15.8416C13.1723 15.6028 13.7641 15.2625 14.2897 14.834L16.2341 15.3895C16.2963 15.4068 16.3606 15.4156 16.4251 15.4159C16.5471 15.4161 16.667 15.384 16.7727 15.3231C16.8784 15.2621 16.9662 15.1744 17.0272 15.0687L18.0689 13.2632C18.1463 13.129 18.1767 12.9728 18.1552 12.8195C18.1336 12.6661 18.0615 12.5243 17.9501 12.4166L16.4925 11.009ZM10.3314 12.7777C9.78197 12.7777 9.24491 12.6148 8.78811 12.3096C8.33131 12.0044 7.97527 11.5705 7.76503 11.063C7.55478 10.5554 7.49977 9.99688 7.60696 9.45804C7.71414 8.91921 7.97869 8.42425 8.36717 8.03577C8.75565 7.64729 9.25061 7.38274 9.78944 7.27556C10.3283 7.16837 10.8868 7.22338 11.3944 7.43363C11.9019 7.64387 12.3358 7.99991 12.641 8.45671C12.9462 8.91351 13.1091 9.45057 13.1091 9.99996C13.1091 10.7367 12.8165 11.4432 12.2955 11.9641C11.7746 12.4851 11.0681 12.7777 10.3314 12.7777Z" fill="white"/>
</svg>
