<svg width="17" height="16" viewBox="0 0 17 16" fill="none" xmlns="http://www.w3.org/2000/svg">
<path d="M9.10607 1.93931C9.10607 1.60459 8.83473 1.33325 8.50001 1.33325C8.16529 1.33325 7.89395 1.60459 7.89395 1.93931V7.39386H2.4394C2.10469 7.39386 1.83334 7.6652 1.83334 7.99992C1.83334 8.33464 2.10469 8.60598 2.4394 8.60598H7.89395V14.0605C7.89395 14.3952 8.16529 14.6666 8.50001 14.6666C8.83473 14.6666 9.10607 14.3952 9.10607 14.0605V8.60598H14.5606C14.8953 8.60598 15.1667 8.33464 15.1667 7.99992C15.1667 7.6652 14.8953 7.39386 14.5606 7.39386H9.10607V1.93931Z" fill="#3366FF"/>
</svg>
