<svg width="24" height="24" viewBox="0 0 24 24" fill="none" xmlns="http://www.w3.org/2000/svg">
<path d="M22 11.9988C21.9998 10.0878 21.452 8.21692 20.4215 6.60757C19.391 4.99822 17.921 3.71784 16.1854 2.91802C14.4498 2.11819 12.5214 1.83241 10.6285 2.09451C8.73552 2.35661 6.95732 3.15561 5.50437 4.39693C4.05142 5.63824 2.98457 7.26989 2.43013 9.09869C1.87569 10.9275 1.85687 12.8769 2.37591 14.716C2.89494 16.5552 3.93009 18.2071 5.35881 19.4763C6.78752 20.7454 8.54997 21.5786 10.4375 21.8772V14.8897H7.89833V11.9988H10.4375V9.79552C10.4375 7.28968 11.9308 5.90468 14.2142 5.90468C14.9643 5.91544 15.7126 5.98061 16.4533 6.09968V8.56135H15.1917C14.8119 8.51093 14.4276 8.61341 14.1233 8.84625C13.8191 9.0791 13.6197 9.42324 13.5692 9.80301C13.5549 9.90937 13.5526 10.017 13.5625 10.1238V11.9988H16.3333L15.89 14.8897H13.5567V21.8772C15.91 21.5063 18.0537 20.3074 19.6016 18.4964C21.1495 16.6854 22.0001 14.3813 22 11.9988Z" fill="#161C24" fill-opacity="0.64"/>
</svg>
