<svg width="16" height="16" viewBox="0 0 16 16" fill="none" xmlns="http://www.w3.org/2000/svg">
<path d="M13.1939 8.80714C13.2393 8.54042 13.2631 8.27047 13.265 7.99992C13.2631 7.72937 13.2393 7.45941 13.1939 7.1927L14.3605 6.06547C14.4495 5.97939 14.5072 5.86606 14.5244 5.74347C14.5416 5.62088 14.5174 5.49606 14.4555 5.38881L13.6222 3.94436C13.5595 3.83751 13.4632 3.75443 13.3484 3.70809C13.2335 3.66175 13.1065 3.65478 12.9872 3.68825L11.4317 4.1327C11.0105 3.78966 10.5363 3.5174 10.0278 3.32659L9.63721 1.75436C9.60722 1.63412 9.53789 1.52736 9.44025 1.45106C9.3426 1.37475 9.22225 1.33329 9.09832 1.33325H7.43166C7.30773 1.33329 7.18738 1.37475 7.08973 1.45106C6.99209 1.52736 6.92276 1.63412 6.89277 1.75436L6.49999 3.32659C5.9922 3.51761 5.51881 3.78986 5.09832 4.1327L3.54277 3.68825C3.4235 3.65488 3.29654 3.6619 3.18168 3.70822C3.06681 3.75455 2.97051 3.83758 2.90777 3.94436L2.07443 5.38881C2.01248 5.49612 1.98817 5.62106 2.00539 5.74377C2.0226 5.86648 2.08034 5.97991 2.16943 6.06603L3.3361 7.19325C3.29071 7.45979 3.26692 7.72955 3.26499 7.99992C3.26689 8.27047 3.29068 8.54042 3.3361 8.80714L2.16943 9.93436C2.08047 10.0204 2.02281 10.1338 2.0056 10.2564C1.98839 10.379 2.01262 10.5038 2.07443 10.611L2.90777 12.0555C2.95657 12.14 3.02679 12.2102 3.11135 12.259C3.19591 12.3077 3.29182 12.3333 3.38943 12.3333C3.44107 12.333 3.49245 12.3259 3.54221 12.3121L5.09777 11.8677C5.51893 12.2107 5.99308 12.483 6.50166 12.6738L6.89443 14.246C6.92446 14.3659 6.99359 14.4723 7.09088 14.5485C7.18818 14.6247 7.30809 14.6662 7.43166 14.6666H9.09832C9.22225 14.6666 9.3426 14.6251 9.44025 14.5488C9.53789 14.4725 9.60722 14.3657 9.63721 14.2455L10.03 12.6733C10.5378 12.4822 11.0112 12.21 11.4317 11.8671L12.9872 12.3116C13.037 12.3254 13.0884 12.3325 13.14 12.3327C13.2376 12.3328 13.3335 12.3072 13.4181 12.2584C13.5026 12.2096 13.5729 12.1395 13.6217 12.0549L14.455 10.6105C14.5169 10.5032 14.5412 10.3782 14.524 10.2555C14.5068 10.1328 14.4491 10.0194 14.36 9.93325L13.1939 8.80714ZM8.26499 10.2221C7.82548 10.2221 7.39583 10.0918 7.03039 9.84763C6.66495 9.60345 6.38012 9.25638 6.21192 8.85033C6.04373 8.44427 5.99972 7.99745 6.08547 7.56638C6.17121 7.13532 6.38286 6.73935 6.69364 6.42857C7.00442 6.11779 7.40039 5.90614 7.83146 5.8204C8.26252 5.73465 8.70934 5.77866 9.1154 5.94685C9.52146 6.11505 9.86852 6.39988 10.1127 6.76532C10.3569 7.13076 10.4872 7.5604 10.4872 7.99992C10.4872 8.58929 10.2531 9.15452 9.83634 9.57127C9.41959 9.98802 8.85436 10.2221 8.26499 10.2221Z" fill="#3366FF"/>
</svg>
