<svg width="21" height="20" viewBox="0 0 21 20" fill="none" xmlns="http://www.w3.org/2000/svg">
<path d="M12.237 5.46001C11.9412 5.16416 11.9412 4.68449 12.237 4.38864C12.5329 4.09279 13.0125 4.09279 13.3084 4.38864L18.6108 9.69109L18.6163 9.69664C18.7505 9.83332 18.8333 10.0207 18.8333 10.2274C18.8333 10.3301 18.8129 10.428 18.7758 10.5173C18.7389 10.6067 18.6841 10.6904 18.6114 10.763L13.3084 16.0661C13.0125 16.3619 12.5329 16.3619 12.237 16.0661C11.9412 15.7702 11.9412 15.2906 12.237 14.9947L16.2468 10.9849H2.92422C2.50582 10.9849 2.16665 10.6458 2.16665 10.2274C2.16665 9.80896 2.50582 9.46978 2.92422 9.46978H16.2468L12.237 5.46001Z" fill="white"/>
</svg>
