<svg width="16" height="16" viewBox="0 0 16 16" fill="none" xmlns="http://www.w3.org/2000/svg">
<path d="M4.11127 7.44461C3.80445 7.44461 3.55572 7.69334 3.55572 8.00016V8.55572C3.55572 8.86254 3.80445 9.11127 4.11127 9.11127H5.22239C5.52921 9.11127 5.77794 8.86254 5.77794 8.55572V8.00016C5.77794 7.69334 5.52921 7.44461 5.22239 7.44461H4.11127Z" fill="#161C24" fill-opacity="0.8"/>
<path d="M7.44461 7.44461C7.13778 7.44461 6.88905 7.69334 6.88905 8.00016V8.55572C6.88905 8.86254 7.13778 9.11127 7.44461 9.11127H8.55572C8.86254 9.11127 9.11127 8.86254 9.11127 8.55572V8.00016C9.11127 7.69334 8.86254 7.44461 8.55572 7.44461H7.44461Z" fill="#161C24" fill-opacity="0.8"/>
<path d="M3.55572 10.7779C3.55572 10.4711 3.80445 10.2224 4.11127 10.2224H5.22239C5.52921 10.2224 5.77794 10.4711 5.77794 10.7779V11.3335C5.77794 11.6403 5.52921 11.8891 5.22239 11.8891H4.11127C3.80445 11.8891 3.55572 11.6403 3.55572 11.3335V10.7779Z" fill="#161C24" fill-opacity="0.8"/>
<path d="M7.44461 10.2224C7.13778 10.2224 6.88905 10.4711 6.88905 10.7779V11.3335C6.88905 11.6403 7.13778 11.8891 7.44461 11.8891H8.55572C8.86254 11.8891 9.11127 11.6403 9.11127 11.3335V10.7779C9.11127 10.4711 8.86254 10.2224 8.55572 10.2224H7.44461Z" fill="#161C24" fill-opacity="0.8"/>
<path d="M10.2224 8.00016C10.2224 7.69334 10.4711 7.44461 10.7779 7.44461H11.8891C12.1959 7.44461 12.4446 7.69334 12.4446 8.00016V8.55572C12.4446 8.86254 12.1959 9.11127 11.8891 9.11127H10.7779C10.4711 9.11127 10.2224 8.86254 10.2224 8.55572V8.00016Z" fill="#161C24" fill-opacity="0.8"/>
<path fill-rule="evenodd" clip-rule="evenodd" d="M5.22239 1.88905C5.22239 1.58223 4.97365 1.3335 4.66683 1.3335C4.36 1.3335 4.11127 1.58223 4.11127 1.88905V2.44461H3.00016C2.07969 2.44461 1.3335 3.1908 1.3335 4.11127V12.4446C1.3335 13.3651 2.07969 14.1113 3.00016 14.1113H13.0002C13.9206 14.1113 14.6668 13.3651 14.6668 12.4446V4.11127C14.6668 3.1908 13.9206 2.44461 13.0002 2.44461H11.8891V1.88905C11.8891 1.58223 11.6403 1.3335 11.3335 1.3335C11.0267 1.3335 10.7779 1.58223 10.7779 1.88905V2.44461H5.22239V1.88905ZM3.00016 3.55572C2.69334 3.55572 2.44461 3.80445 2.44461 4.11127V5.22238H13.5557V4.11127C13.5557 3.80445 13.307 3.55572 13.0002 3.55572H11.8891C11.8891 3.86254 11.6403 4.11127 11.3335 4.11127C11.0267 4.11127 10.7779 3.86254 10.7779 3.55572H5.22239C5.22239 3.86254 4.97365 4.11127 4.66683 4.11127C4.36 4.11127 4.11127 3.86254 4.11127 3.55572H3.00016ZM3.00016 13.0002C2.69334 13.0002 2.44461 12.7514 2.44461 12.4446V6.3335H13.5557V12.4446C13.5557 12.7514 13.307 13.0002 13.0002 13.0002H3.00016Z" fill="#161C24" fill-opacity="0.8"/>
</svg>
