<svg width="16" height="16" viewBox="0 0 16 16" fill="none" xmlns="http://www.w3.org/2000/svg">
<path d="M7.76817 1.37899C7.69805 1.40801 7.63227 1.45075 7.57494 1.50722L7.5712 1.51094L3.93525 5.14688C3.69857 5.38356 3.69857 5.7673 3.93525 6.00398C4.17193 6.24066 4.55567 6.24066 4.79235 6.00398L7.3941 3.40223V11.03C7.3941 11.3647 7.66545 11.636 8.00016 11.636C8.33488 11.636 8.60622 11.3647 8.60622 11.03V3.40223L11.208 6.00398C11.4447 6.24066 11.8284 6.24066 12.0651 6.00398C12.3018 5.7673 12.3018 5.38356 12.0651 5.14688L8.42913 1.51094L8.42539 1.50722C8.31618 1.39968 8.16639 1.33325 8.00107 1.33301L8.00016 1.33301L7.99925 1.33301C7.91741 1.33313 7.83937 1.34947 7.76817 1.37899Z" fill="#2D3239"/>
<path d="M1.93956 9.81786C2.27427 9.81786 2.54562 10.0892 2.54562 10.4239V13.4542H13.4547V10.4239C13.4547 10.0892 13.7261 9.81786 14.0608 9.81786C14.3955 9.81786 14.6668 10.0892 14.6668 10.4239V14.0603C14.6668 14.395 14.3955 14.6663 14.0608 14.6663H1.93956C1.60484 14.6663 1.3335 14.395 1.3335 14.0603V10.4239C1.3335 10.0892 1.60484 9.81786 1.93956 9.81786Z" fill="#2D3239"/>
</svg>
