<svg width="16" height="16" viewBox="0 0 16 16" fill="none" xmlns="http://www.w3.org/2000/svg">
<path d="M8.60622 1.93907C8.60622 1.60435 8.33488 1.33301 8.00016 1.33301C7.66544 1.33301 7.3941 1.60435 7.3941 1.93907V7.39361H1.93956C1.60484 7.39361 1.3335 7.66496 1.3335 7.99967C1.3335 8.33439 1.60484 8.60574 1.93956 8.60574H7.3941V14.0603C7.3941 14.395 7.66544 14.6663 8.00016 14.6663C8.33488 14.6663 8.60622 14.395 8.60622 14.0603V8.60574H14.0608C14.3955 8.60574 14.6668 8.33439 14.6668 7.99967C14.6668 7.66496 14.3955 7.39361 14.0608 7.39361H8.60622V1.93907Z" fill="white"/>
</svg>
