<svg width="20" height="20" viewBox="0 0 20 20" fill="none" xmlns="http://www.w3.org/2000/svg">
<path fill-rule="evenodd" clip-rule="evenodd" d="M12.5363 13.588C11.3914 14.5037 9.93926 15.0514 8.35917 15.0514C4.66318 15.0514 1.66699 12.0552 1.66699 8.35917C1.66699 4.66318 4.66318 1.66699 8.35917 1.66699C12.0552 1.66699 15.0514 4.66318 15.0514 8.35917C15.0514 9.93931 14.5037 11.3915 13.5879 12.5364L18.3336 17.2821L17.282 18.3337L12.5363 13.588ZM3.15414 8.35917C3.15414 5.48451 5.48451 3.15414 8.35917 3.15414C11.2338 3.15414 13.5642 5.48451 13.5642 8.35917C13.5642 9.76109 13.01 11.0336 12.1086 11.9694L11.9694 12.1086C11.0336 13.01 9.76109 13.5642 8.35917 13.5642C5.48451 13.5642 3.15414 11.2338 3.15414 8.35917Z" fill="#161C24" fill-opacity="0.64"/>
</svg>
