<svg width="12" height="12" viewBox="0 0 12 12" fill="none" xmlns="http://www.w3.org/2000/svg">
<path d="M9.89541 6.60542C9.92948 6.40538 9.94731 6.20291 9.94874 6C9.94731 5.79709 9.92948 5.59462 9.89541 5.39458L10.7704 4.54917C10.8371 4.4846 10.8804 4.39961 10.8933 4.30767C10.9062 4.21572 10.888 4.12211 10.8417 4.04167L10.2167 2.95833C10.1697 2.87819 10.0974 2.81588 10.0113 2.78113C9.92511 2.74638 9.82986 2.74114 9.74041 2.76625L8.57374 3.09958C8.25787 2.8423 7.90225 2.63811 7.52083 2.495L7.22791 1.31583C7.20542 1.22565 7.15342 1.14558 7.08018 1.08835C7.00695 1.03113 6.91668 1.00003 6.82374 1H5.57374C5.4808 1.00003 5.39053 1.03113 5.3173 1.08835C5.24407 1.14558 5.19207 1.22565 5.16958 1.31583L4.87499 2.495C4.49415 2.63827 4.13911 2.84246 3.82374 3.09958L2.65708 2.76625C2.56762 2.74122 2.4724 2.74648 2.38626 2.78123C2.30011 2.81597 2.22788 2.87824 2.18083 2.95833L1.55583 4.04167C1.50936 4.12215 1.49113 4.21585 1.50404 4.30789C1.51695 4.39992 1.56026 4.48499 1.62708 4.54958L2.50208 5.395C2.46803 5.5949 2.45019 5.79723 2.44874 6C2.45017 6.20291 2.46801 6.40538 2.50208 6.60542L1.62708 7.45083C1.56036 7.5154 1.51711 7.60039 1.5042 7.69233C1.49129 7.78428 1.50946 7.87789 1.55583 7.95833L2.18083 9.04167C2.21743 9.10507 2.27009 9.1577 2.33351 9.19428C2.39693 9.23085 2.46887 9.25007 2.54208 9.25C2.5808 9.24983 2.61934 9.2445 2.65666 9.23417L3.82333 8.90083C4.1392 9.15811 4.49481 9.36231 4.87624 9.50542L5.17083 10.6846C5.19334 10.7745 5.24519 10.8543 5.31816 10.9114C5.39114 10.9686 5.48107 10.9997 5.57374 11H6.82374C6.91668 11 7.00695 10.9689 7.08018 10.9116C7.15342 10.8544 7.20542 10.7743 7.22791 10.6842L7.52249 9.505C7.90334 9.36173 8.25838 9.15754 8.57374 8.90042L9.74041 9.23375C9.77773 9.24409 9.81626 9.24941 9.85499 9.24958C9.9282 9.24965 10.0001 9.23044 10.0636 9.19386C10.127 9.15729 10.1796 9.10465 10.2162 9.04125L10.8412 7.95792C10.8877 7.87743 10.9059 7.78373 10.893 7.6917C10.8801 7.59966 10.8368 7.51459 10.77 7.45L9.89541 6.60542ZM6.19874 7.66667C5.86911 7.66667 5.54687 7.56892 5.27279 7.38578C4.99871 7.20265 4.78509 6.94235 4.65894 6.63781C4.5328 6.33326 4.49979 5.99815 4.5641 5.67485C4.62841 5.35155 4.78714 5.05458 5.02023 4.82149C5.25332 4.5884 5.55029 4.42967 5.87359 4.36536C6.19689 4.30105 6.532 4.33405 6.83655 4.4602C7.14109 4.58635 7.40139 4.79997 7.58452 5.07405C7.76766 5.34813 7.86541 5.67036 7.86541 6C7.86541 6.44203 7.68981 6.86595 7.37725 7.17851C7.06469 7.49107 6.64077 7.66667 6.19874 7.66667Z" fill="#161C24"/>
</svg>
