<svg width="20" height="20" viewBox="0 0 20 20" fill="none" xmlns="http://www.w3.org/2000/svg">
<path d="M16.4923 11.0094C16.5491 10.676 16.5789 10.3385 16.5812 10.0003C16.5789 9.66214 16.5491 9.32469 16.4923 8.9913L17.9507 7.58227C18.0619 7.47467 18.134 7.33301 18.1555 7.17977C18.177 7.02653 18.1467 6.8705 18.0694 6.73644L17.0278 4.93088C16.9494 4.79731 16.8291 4.69346 16.6854 4.63554C16.5418 4.57762 16.3831 4.5689 16.234 4.61074L14.2896 5.1663C13.7631 4.7375 13.1704 4.39717 12.5347 4.15866L12.0465 2.19338C12.009 2.04308 11.9224 1.90963 11.8003 1.81425C11.6783 1.71887 11.5278 1.66703 11.3729 1.66699H9.28957C9.13467 1.66703 8.98422 1.71887 8.86217 1.81425C8.74011 1.90963 8.65345 2.04308 8.61596 2.19338L8.12499 4.15866C7.49025 4.39745 6.89851 4.73776 6.3729 5.1663L4.42846 4.61074C4.27937 4.56902 4.12067 4.5778 3.97709 4.63571C3.83352 4.69362 3.71313 4.7974 3.63471 4.93088L2.59304 6.73644C2.5156 6.87057 2.48522 7.02675 2.50673 7.18014C2.52825 7.33352 2.60043 7.47531 2.71179 7.58296L4.17013 8.99199C4.11338 9.32516 4.08366 9.66237 4.08124 10.0003C4.08362 10.3385 4.11334 10.676 4.17013 11.0094L2.71179 12.4184C2.60059 12.526 2.52852 12.6676 2.507 12.8209C2.48549 12.9741 2.51577 13.1302 2.59304 13.2642L3.63471 15.0698C3.69572 15.1754 3.78349 15.2632 3.88919 15.3241C3.99488 15.3851 4.11478 15.4171 4.23679 15.417C4.30134 15.4167 4.36556 15.4078 4.42776 15.3906L6.37221 14.835C6.89866 15.2638 7.49135 15.6042 8.12707 15.8427L8.61804 17.808C8.65557 17.9578 8.74198 18.0908 8.8636 18.186C8.98523 18.2812 9.13512 18.3332 9.28957 18.3337H11.3729C11.5278 18.3336 11.6783 18.2818 11.8003 18.1864C11.9224 18.091 12.009 17.9576 12.0465 17.8073L12.5375 15.842C13.1722 15.6032 13.764 15.2629 14.2896 14.8344L16.234 15.3899C16.2962 15.4071 16.3604 15.416 16.425 15.4163C16.547 15.4164 16.6669 15.3844 16.7726 15.3234C16.8783 15.2625 16.9661 15.1747 17.0271 15.0691L18.0687 13.2635C18.1462 13.1294 18.1766 12.9732 18.155 12.8198C18.1335 12.6664 18.0614 12.5246 17.95 12.417L16.4923 11.0094ZM10.3312 12.7781C9.78184 12.7781 9.24479 12.6152 8.78799 12.31C8.33118 12.0047 7.97515 11.5709 7.7649 11.0633C7.55466 10.5558 7.49965 9.99724 7.60683 9.45841C7.71401 8.91957 7.97857 8.42462 8.36705 8.03614C8.75553 7.64766 9.25048 7.3831 9.78932 7.27592C10.3282 7.16874 10.8867 7.22375 11.3942 7.43399C11.9018 7.64424 12.3356 8.00027 12.6409 8.45708C12.9461 8.91388 13.109 9.45093 13.109 10.0003C13.109 10.737 12.8164 11.4436 12.2954 11.9645C11.7745 12.4854 11.0679 12.7781 10.3312 12.7781Z" fill="#161C24"/>
</svg>
