<svg width="24" height="24" viewBox="0 0 24 24" fill="none" xmlns="http://www.w3.org/2000/svg">
<path d="M19.7909 13.2108C19.8591 12.8108 19.8947 12.4058 19.8976 12C19.8947 11.5942 19.8591 11.1892 19.7909 10.7892L21.5409 9.09833C21.6744 8.96921 21.7609 8.79922 21.7867 8.61533C21.8125 8.43145 21.7762 8.24421 21.6834 8.08333L20.4334 5.91667C20.3394 5.75639 20.195 5.63176 20.0227 5.56226C19.8503 5.49275 19.6598 5.48229 19.4809 5.5325L17.1476 6.19917C16.5159 5.68461 15.8046 5.27622 15.0418 4.99L14.4559 2.63167C14.411 2.45131 14.307 2.29116 14.1605 2.17671C14.014 2.06225 13.8335 2.00005 13.6476 2H11.1476C10.9617 2.00005 10.7812 2.06225 10.6347 2.17671C10.4883 2.29116 10.3843 2.45131 10.3393 2.63167L9.75011 4.99C8.98842 5.27654 8.27834 5.68492 7.64761 6.19917L5.31427 5.5325C5.13537 5.48244 4.94493 5.49297 4.77263 5.56246C4.60034 5.63195 4.45588 5.75649 4.36177 5.91667L3.11177 8.08333C3.01884 8.2443 2.98238 8.43171 3.0082 8.61577C3.03402 8.79984 3.12064 8.96999 3.25427 9.09917L5.00427 10.79C4.93618 11.1898 4.90051 11.5945 4.89761 12C4.90046 12.4058 4.93614 12.8108 5.00427 13.2108L3.25427 14.9017C3.12083 15.0308 3.03434 15.2008 3.00853 15.3847C2.98271 15.5686 3.01905 15.7558 3.11177 15.9167L4.36177 18.0833C4.43498 18.2101 4.54031 18.3154 4.66715 18.3886C4.79398 18.4617 4.93786 18.5001 5.08427 18.5C5.16173 18.4997 5.23879 18.489 5.31344 18.4683L7.64677 17.8017C8.27852 18.3162 8.98975 18.7246 9.75261 19.0108L10.3418 21.3692C10.3868 21.549 10.4905 21.7086 10.6364 21.8229C10.7824 21.9371 10.9623 21.9994 11.1476 22H13.6476C13.8335 21.9999 14.014 21.9377 14.1605 21.8233C14.307 21.7088 14.411 21.5487 14.4559 21.3683L15.0451 19.01C15.8068 18.7235 16.5169 18.3151 17.1476 17.8008L19.4809 18.4675C19.5556 18.4882 19.6327 18.4988 19.7101 18.4992C19.8565 18.4993 20.0004 18.4609 20.1272 18.3877C20.2541 18.3146 20.3594 18.2093 20.4326 18.0825L21.6826 15.9158C21.7755 15.7549 21.812 15.5675 21.7862 15.3834C21.7604 15.1993 21.6737 15.0292 21.5401 14.9L19.7909 13.2108ZM12.3976 15.3333C11.7383 15.3333 11.0939 15.1378 10.5457 14.7716C9.99754 14.4053 9.5703 13.8847 9.31801 13.2756C9.06572 12.6665 8.9997 11.9963 9.12832 11.3497C9.25694 10.7031 9.57441 10.1092 10.0406 9.64298C10.5068 9.1768 11.1007 8.85933 11.7473 8.73072C12.3939 8.6021 13.0641 8.66811 13.6732 8.9204C14.2823 9.17269 14.8029 9.59994 15.1692 10.1481C15.5354 10.6963 15.7309 11.3407 15.7309 12C15.7309 12.8841 15.3798 13.7319 14.7546 14.357C14.1295 14.9821 13.2817 15.3333 12.3976 15.3333Z" fill="#161C24" fill-opacity="0.32"/>
</svg>
