<svg width="16" height="16" viewBox="0 0 16 16" fill="none" xmlns="http://www.w3.org/2000/svg">
<path d="M8.33317 4.66634C9.24984 4.66634 9.99984 3.91634 9.99984 2.99967C9.99984 2.08301 9.24984 1.33301 8.33317 1.33301C7.4165 1.33301 6.6665 2.08301 6.6665 2.99967C6.6665 3.91634 7.4165 4.66634 8.33317 4.66634ZM8.33317 6.33301C7.4165 6.33301 6.6665 7.08301 6.6665 7.99967C6.6665 8.91634 7.4165 9.66634 8.33317 9.66634C9.24984 9.66634 9.99984 8.91634 9.99984 7.99967C9.99984 7.08301 9.24984 6.33301 8.33317 6.33301ZM8.33317 11.333C7.4165 11.333 6.6665 12.083 6.6665 12.9997C6.6665 13.9163 7.4165 14.6663 8.33317 14.6663C9.24984 14.6663 9.99984 13.9163 9.99984 12.9997C9.99984 12.083 9.24984 11.333 8.33317 11.333Z" fill="#161C24" fill-opacity="0.64"/>
</svg>
