<svg width="24" height="24" viewBox="0 0 24 24" fill="none" xmlns="http://www.w3.org/2000/svg">
<path fill-rule="evenodd" clip-rule="evenodd" d="M5.62346 19.7036C5.63199 19.7109 5.64067 19.7181 5.6495 19.7251C7.37657 21.1465 9.58861 22 12 22C14.4095 22 16.6199 21.1479 18.3464 19.7285L18.3507 19.7251C18.3608 19.717 18.3707 19.7088 18.3805 19.7003C20.5917 17.8661 22 15.0975 22 12C22 6.47715 17.5228 2 12 2C6.47715 2 2 6.47715 2 12C2 15.0993 3.40997 17.8693 5.62346 19.7036ZM3.66667 12C3.66667 7.39763 7.39763 3.66667 12 3.66667C16.6024 3.66667 20.3333 7.39763 20.3333 12C20.3333 14.0013 19.6279 15.8378 18.4521 17.2744C18.1824 16.5599 17.6706 15.9473 16.9866 15.5565L15.2745 14.5768C15.8333 13.8677 16.1667 12.9728 16.1667 12V10.3333C16.1667 8.03226 14.3011 6.16667 12 6.16667C9.69893 6.16667 7.83333 8.03226 7.83333 10.3333V12C7.83333 12.972 8.1662 13.8663 8.72416 14.5751L7.01268 15.5567C6.32875 15.9475 5.8173 16.5599 5.54778 17.2742C4.37206 15.8376 3.66667 14.0012 3.66667 12ZM17 18.6673C15.6072 19.7134 13.876 20.3333 12 20.3333C10.124 20.3333 8.39277 19.7134 7 18.6673V18.4508C7 17.8523 7.32055 17.3002 7.83995 17.0036L10.0982 15.7083C10.6684 16.0013 11.3149 16.1667 12 16.1667C12.6839 16.1667 13.3294 16.0019 13.8988 15.7098L16.16 17.0037C16.6794 17.3004 17 17.8525 17 18.4509V18.6673ZM12 7.83333C10.6194 7.83333 9.5 8.95274 9.5 10.3333V12C9.5 12.8511 9.92547 13.603 10.5753 14.0545L10.5852 14.0614C10.9875 14.338 11.4749 14.5 12 14.5C12.518 14.5 12.9992 14.3424 13.3983 14.0726C13.4108 14.0635 13.4235 14.0547 13.4364 14.0464C14.0796 13.594 14.5 12.846 14.5 12V10.3333C14.5 8.95274 13.3806 7.83333 12 7.83333Z" fill="#161C24"/>
</svg>
