<svg width="28" height="28" viewBox="0 0 28 28" fill="none" xmlns="http://www.w3.org/2000/svg">
<path d="M9.33325 12.2497C10.2998 12.2497 11.0833 11.4662 11.0833 10.4997C11.0833 9.53318 10.2998 8.74967 9.33325 8.74967C8.36675 8.74967 7.58325 9.53318 7.58325 10.4997C7.58325 11.4662 8.36675 12.2497 9.33325 12.2497Z" fill="#161C24"/>
<path fill-rule="evenodd" clip-rule="evenodd" d="M6.70825 3.20801C4.77525 3.20801 3.20825 4.77501 3.20825 6.70801V21.2913C3.20825 23.2243 4.77526 24.7913 6.70825 24.7913H21.2916C23.2246 24.7913 24.7916 23.2243 24.7916 21.2913V6.70801C24.7916 4.77501 23.2246 3.20801 21.2916 3.20801H6.70825ZM21.2916 5.54134H6.70825C6.06392 5.54134 5.54159 6.06368 5.54159 6.70801V15.7708L8.45682 13.9769C8.65082 13.8575 8.89658 13.8619 9.08612 13.9883L12.1974 16.0625L17.1418 12.2169C17.3525 12.053 17.6474 12.053 17.8581 12.2169L22.4583 15.7948V6.70801C22.4583 6.06368 21.9359 5.54134 21.2916 5.54134ZM5.54159 21.2913V18.5106L8.72477 16.5517L12.3025 18.9368L17.5 14.8943L22.4583 18.7508V21.2913C22.4583 21.9357 21.9359 22.458 21.2916 22.458H6.70825C6.06392 22.458 5.54159 21.9357 5.54159 21.2913Z" fill="#161C24"/>
</svg>
