<svg width="32" height="32" viewBox="0 0 32 32" fill="none" xmlns="http://www.w3.org/2000/svg">
<path d="M20.1664 28.1334L8.93307 16.9334C8.79974 16.8 8.70552 16.6556 8.65041 16.5C8.59441 16.3445 8.56641 16.1778 8.56641 16C8.56641 15.8223 8.59441 15.6556 8.65041 15.5C8.70552 15.3445 8.79974 15.2 8.93307 15.0667L20.1664 3.83337C20.4775 3.52225 20.8664 3.3667 21.3331 3.3667C21.7997 3.3667 22.1997 3.53337 22.5331 3.8667C22.8664 4.20003 23.0331 4.58892 23.0331 5.03337C23.0331 5.47781 22.8664 5.8667 22.5331 6.20003L12.7331 16L22.5331 25.8C22.8442 26.1111 22.9997 26.4943 22.9997 26.9494C22.9997 27.4054 22.8331 27.8 22.4997 28.1334C22.1664 28.4667 21.7775 28.6334 21.3331 28.6334C20.8886 28.6334 20.4997 28.4667 20.1664 28.1334Z" fill="#121212"/>
</svg>
