<svg width="1041" height="210" viewBox="0 0 1041 210" fill="none" xmlns="http://www.w3.org/2000/svg">
<path d="M2 64H1V65V208V209H2H1039H1040V208V76V75H1039C1032.3 75 1027.11 79.4657 1022.28 83.6217L1022.14 83.7421C1017.14 88.0525 1012.48 92 1006.59 92C1003.83 92 1001.26 90.4211 998.688 87.7718C996.118 85.1278 993.7 81.582 991.217 77.9371L991.185 77.8901C988.74 74.2998 986.231 70.6156 983.527 67.8343C980.817 65.0461 977.756 63 974.188 63C970.606 63 967.541 65.1235 964.836 68.0027C962.134 70.8781 959.627 74.687 957.181 78.4013L957.149 78.4501C954.667 82.2204 952.247 85.8907 949.675 88.6277C947.095 91.3735 944.527 93 941.781 93C938.324 93 935.3 94.4386 932.561 96.4793C929.847 98.5009 927.328 101.179 924.885 103.777L924.85 103.815C922.367 106.455 919.959 109.011 917.4 110.917C914.854 112.814 912.245 114 909.375 114C906.575 114 903.992 112.566 901.43 110.202C898.865 107.837 896.451 104.664 893.968 101.395L893.934 101.35C891.49 98.1328 888.977 94.8249 886.27 92.3274C883.546 89.8155 880.496 88 876.969 88C874.056 88 871.426 86.9678 868.884 85.3447C866.327 83.7116 863.922 81.5234 861.439 79.2609L861.404 79.2292C858.96 77.0016 856.439 74.7034 853.724 72.9697C850.98 71.2178 847.977 70 844.562 70C838.063 70 832.988 71.7987 828.069 73.5418L828.025 73.5574C823.082 75.3095 818.292 77 812.156 77C806.244 77 801.582 73.2732 796.583 69.223L796.453 69.1179C791.614 65.1979 786.433 61 779.75 61C777.017 61 774.452 59.3262 771.867 56.4835C769.294 53.6533 766.872 49.8582 764.39 45.9627L764.359 45.9129C761.913 42.0742 759.407 38.1405 756.706 35.171C754.006 32.2012 750.939 30 747.344 30C744.585 30 742.013 28.4211 739.438 25.7718C736.868 23.1278 734.45 19.582 731.967 15.9371L731.935 15.8901C729.49 12.2999 726.981 8.61563 724.277 5.83426C721.567 3.0461 718.506 1 714.938 1C713.025 1 711.302 1.89191 709.762 3.27579C708.226 4.65621 706.802 6.58762 705.457 8.82942C702.778 13.2969 700.287 19.2244 697.834 25.0615L697.812 25.1126C695.335 31.009 692.895 36.8099 690.297 41.1419C688.998 43.3064 687.694 45.0468 686.37 46.2367C685.05 47.4232 683.783 48 682.531 48C676.009 48 670.917 50.0623 666.005 52.052L665.953 52.0731C661.006 54.0769 656.235 56 650.125 56C644.015 56 639.244 54.0769 634.297 52.0731L634.245 52.052C629.333 50.0623 624.242 48 617.719 48C611.556 48 606.747 46.544 601.806 45.0432L601.77 45.032C596.846 43.5364 591.789 42 585.312 42C581.841 42 578.811 43.5131 576.074 45.6492C573.362 47.7663 570.844 50.5711 568.4 53.2929L568.365 53.332C565.882 56.0979 563.473 58.7765 560.914 60.7742C558.365 62.7631 555.762 64 552.906 64C550.187 64 547.624 62.2791 545.034 59.339C542.459 56.4156 540.036 52.4956 537.554 48.4748L537.524 48.4256C535.077 44.462 532.572 40.4029 529.873 37.339C527.178 34.2791 524.108 32 520.5 32C513.8 32 508.612 36.4656 503.785 40.6216L503.645 40.7421C498.637 45.0525 493.984 49 488.094 49C481.527 49 476.406 51.5929 471.509 54.0725L471.439 54.1078C466.482 56.6175 461.745 59 455.688 59C449.235 59 444.196 60.2756 439.269 61.523L439.239 61.5306C434.3 62.7808 429.471 64 423.281 64C417.249 64 412.527 61.3903 407.565 58.6264L407.486 58.5824C402.597 55.8595 397.463 53 390.875 53C384.287 53 379.153 55.8595 374.264 58.5824L374.185 58.6264C369.223 61.3903 364.501 64 358.469 64C352.016 64 346.977 65.2756 342.05 66.523L342.02 66.5306C337.082 67.7808 332.253 69 326.062 69C319.379 69 314.198 73.1979 309.359 77.118L309.23 77.223C304.23 81.2732 299.569 85 293.656 85C287.068 85 281.934 87.8595 277.045 90.5824L276.967 90.6264C272.004 93.3903 267.282 96 261.25 96C258.352 96 255.729 94.9159 253.186 93.202C250.629 91.4782 248.223 89.1678 245.74 86.7793L245.704 86.745C243.261 84.3942 240.74 81.9693 238.025 80.1395C235.283 78.2909 232.273 77 228.844 77C226.057 77 223.479 75.5171 220.913 73.0591C218.346 70.6007 215.931 67.3036 213.448 63.9096L213.414 63.8635C210.97 60.5221 208.458 57.0887 205.752 54.4966C203.033 51.8921 199.979 50 196.438 50C192.755 50 189.676 52.7497 187.012 56.3417C184.321 59.9683 181.823 64.7753 179.374 69.4871L179.347 69.5388C176.867 74.3105 174.436 78.9815 171.851 82.4667C169.23 85.9997 166.676 88 164.031 88C157.922 88 153.151 86.0769 148.204 84.0731L148.151 84.0519C143.239 82.0623 138.148 80 131.625 80C124.942 80 119.761 84.1979 114.922 88.118L114.792 88.223C109.793 92.2732 105.131 96 99.2188 96C96.391 96 93.7986 94.6635 91.2442 92.4886C88.6822 90.3072 86.2709 87.3819 83.7878 84.3646L83.7529 84.3221C81.3093 81.3528 78.7939 78.2962 76.0836 75.9886C73.3528 73.6635 70.3125 72 66.8125 72C60.4092 72 55.4094 72.7594 50.4763 73.5088L50.4592 73.5113C45.5224 74.2612 40.651 75 34.4062 75C28.3741 75 23.6525 72.3903 18.6897 69.6264L18.6107 69.5824C13.7218 66.8594 8.58781 64 2 64Z" fill="url(#paint0_linear_15_5300)" fill-opacity="0.5" stroke="#5C59E8" stroke-width="2"/>
<defs>
<linearGradient id="paint0_linear_15_5300" x1="520.5" y1="-56.7133" x2="520.5" y2="199.171" gradientUnits="userSpaceOnUse">
<stop stop-color="#7D7AED"/>
<stop offset="0.998794" stop-color="white" stop-opacity="0"/>
</linearGradient>
</defs>
</svg>
