<svg width="1041" height="190" viewBox="0 0 1041 190" fill="none" xmlns="http://www.w3.org/2000/svg">
<path d="M2 68H1V69V188V189H2H1039H1040V188V32V31H1039C1032.3 31 1027.11 35.4657 1022.28 39.6217L1022.14 39.7421C1017.14 44.0524 1012.48 48 1006.59 48C1002.95 48 999.872 50.5138 997.192 53.8415C994.498 57.1872 991.996 61.6208 989.548 65.9584L989.52 66.0085C987.039 70.4049 984.612 74.7001 982.031 77.904C979.426 81.1388 976.869 83 974.188 83C967.915 83 963.022 82.505 958.085 82.0051L958.074 82.004C953.139 81.5042 948.16 81 941.781 81C938.995 81 936.416 79.5171 933.85 77.0591C931.284 74.6007 928.868 71.3036 926.385 67.9096L926.352 67.8639C923.907 64.5223 921.396 61.0888 918.69 58.4966C915.97 55.8921 912.916 54 909.375 54C902.899 54 897.841 55.5363 892.918 57.0319L892.881 57.0432C887.941 58.544 883.132 60 876.969 60C870.322 60 865.156 63.6621 860.296 67.107L860.187 67.1842C855.203 70.717 850.521 74 844.562 74C843.489 74 842.254 73.2152 840.869 71.2809C839.513 69.3882 838.184 66.63 836.873 63.2335C834.253 56.4492 831.798 47.3815 829.325 38.2388L829.313 38.1941C826.852 29.1015 824.373 19.9379 821.712 13.046C820.381 9.59875 818.98 6.65382 817.476 4.55437C816.002 2.49645 814.246 1 812.156 1C808.656 1 805.616 2.66353 802.885 4.9886C800.175 7.29602 797.66 10.3523 795.216 13.3214L795.181 13.3646C792.698 16.3819 790.287 19.3072 787.725 21.4886C785.17 23.6635 782.578 25 779.75 25C776.129 25 773.057 27.3572 770.367 30.5068C767.67 33.6645 765.166 37.8482 762.719 41.9361L762.689 41.9864C760.207 46.1325 757.783 50.1774 755.206 53.1943C752.611 56.2322 750.051 58 747.344 58C741.154 58 736.325 56.7808 731.386 55.5306L731.356 55.5231C726.429 54.2757 721.39 53 714.938 53C711.452 53 708.417 54.5881 705.682 56.819C702.971 59.0314 700.454 61.9622 698.011 64.8077L697.976 64.8485C695.493 67.7402 693.083 70.542 690.522 72.6314C687.971 74.7131 685.373 76 682.531 76C676.619 76 671.957 72.2732 666.958 68.223L666.828 68.1179C661.989 64.1979 656.808 60 650.125 60C644.015 60 639.244 58.0769 634.297 56.0731L634.245 56.052C629.333 54.0623 624.242 52 617.719 52C611.152 52 606.031 54.5929 601.134 57.0726L601.064 57.1078C596.107 59.6175 591.37 62 585.312 62C578.836 62 573.779 63.5363 568.856 65.0319L568.819 65.0432C563.878 66.544 559.069 68 552.906 68C550.078 68 547.486 66.6635 544.932 64.4886C542.37 62.3072 539.958 59.3819 537.475 56.3646L537.441 56.3228C534.997 53.3532 532.482 50.2964 529.771 47.9886C527.04 45.6635 524 44 520.5 44C513.8 44 508.612 48.4656 503.785 52.6216L503.645 52.7421C498.637 57.0525 493.984 61 488.094 61C481.527 61 476.406 63.5929 471.509 66.0725L471.439 66.1078C466.482 68.6175 461.745 71 455.688 71C449.655 71 444.934 68.3903 439.971 65.6264L439.892 65.5824C435.003 62.8595 429.869 60 423.281 60C419.824 60 416.8 61.4386 414.061 63.4793C411.348 65.5008 408.829 68.179 406.385 70.7769L406.35 70.8149C403.867 73.4551 401.459 76.0106 398.9 77.9168C396.354 79.8136 393.745 81 390.875 81C384.892 81 380.198 77.9402 375.222 74.6647L375.123 74.5998C370.253 71.3942 365.097 68 358.469 68C355.682 68 353.104 66.5171 350.538 64.0591C347.971 61.6007 345.556 58.3036 343.073 54.9096L343.039 54.8639C340.595 51.5223 338.083 48.0888 335.377 45.4966C332.658 42.8921 329.604 41 326.062 41C323.235 41 320.642 39.6635 318.088 37.4886C315.526 35.3072 313.115 32.3819 310.632 29.3646L310.597 29.3221C308.153 26.3528 305.638 23.2962 302.927 20.9886C300.197 18.6635 297.156 17 293.656 17C290.115 17 287.061 18.8921 284.342 21.4966C281.635 24.0889 279.124 27.5223 276.679 30.8639L276.646 30.9096C274.163 34.3036 271.748 37.6007 269.181 40.0591C266.615 42.5171 264.036 44 261.25 44C257.682 44 254.62 46.0461 251.91 48.8343C249.207 51.6154 246.698 55.2993 244.253 58.8893L244.22 58.9371C241.738 62.582 239.319 66.1278 236.749 68.7718C234.174 71.4211 231.603 73 228.844 73C222.812 73 218.09 70.3903 213.127 67.6264L213.048 67.5823C208.159 64.8594 203.025 62 196.438 62C190.38 62 185.643 59.6175 180.686 57.1078L180.616 57.0726C175.719 54.5929 170.598 52 164.031 52C160.423 52 157.353 54.2791 154.658 57.339C151.959 60.4028 149.454 64.4616 147.008 68.425L146.977 68.4748C144.495 72.4956 142.073 76.4156 139.497 79.339C136.908 82.2791 134.345 84 131.625 84C124.942 84 119.761 88.1979 114.922 92.118L114.792 92.223C109.793 96.2732 105.131 100 99.2188 100C96.391 100 93.7986 98.6635 91.2442 96.4886C88.6822 94.3072 86.2709 91.3819 83.7878 88.3646L83.7529 88.3221C81.3093 85.3528 78.7939 82.2962 76.0836 79.9886C73.3528 77.6635 70.3125 76 66.8125 76C60.4092 76 55.4094 76.7594 50.4763 77.5088L50.4592 77.5113C45.5224 78.2612 40.651 79 34.4062 79C28.3741 79 23.6525 76.3903 18.6897 73.6264L18.6107 73.5824C13.7218 70.8594 8.58781 68 2 68Z" fill="url(#paint0_linear_15_5301)" fill-opacity="0.5" stroke="#E46A11" stroke-width="2"/>
<defs>
<linearGradient id="paint0_linear_15_5301" x1="520.5" y1="-109.196" x2="520.5" y2="178.088" gradientUnits="userSpaceOnUse">
<stop stop-color="#E98841"/>
<stop offset="0.998794" stop-color="white" stop-opacity="0"/>
</linearGradient>
</defs>
</svg>
