<svg width="20" height="20" viewBox="0 0 20 20" fill="none" xmlns="http://www.w3.org/2000/svg">
<path fill-rule="evenodd" clip-rule="evenodd" d="M2.5 2.36144C2.5 1.97791 2.81091 1.66699 3.19444 1.66699H15C15.3835 1.66699 15.6944 1.97791 15.6944 2.36144V12.7781C15.6944 13.1616 15.3835 13.4725 15 13.4725C14.6165 13.4725 14.3056 13.1616 14.3056 12.7781V3.05588H3.88889V15.9031C3.88889 16.455 4.31765 16.9064 4.86041 16.9424L5.97224 14.8614C5.97224 14.4779 6.28315 14.167 6.66668 14.167H17.0833C17.4669 14.167 17.7778 14.4779 17.7778 14.8614V15.9031C17.7778 17.2457 16.6898 18.3337 15.3472 18.3337H4.93069C3.58813 18.3337 2.5 17.2457 2.5 15.9031V2.36144ZM7.36112 15.9031C7.36112 16.312 7.27328 16.6566 7.13288 16.9448H15.3472C15.9227 16.9448 16.3889 16.4786 16.3889 15.9031V15.5559H7.36112V15.9031Z" fill="#161C24" fill-opacity="0.9"/>
<path d="M6.66667 5.13921C6.28314 5.13921 5.97222 5.45013 5.97222 5.83366C5.97222 6.21719 6.28314 6.5281 6.66667 6.5281H11.5278C11.9113 6.5281 12.2222 6.21719 12.2222 5.83366C12.2222 5.45013 11.9113 5.13921 11.5278 5.13921H6.66667Z" fill="#161C24" fill-opacity="0.9"/>
<path d="M5.97222 8.61144C5.97222 8.22791 6.28314 7.91699 6.66667 7.91699H11.5278C11.9113 7.91699 12.2222 8.22791 12.2222 8.61144C12.2222 8.99497 11.9113 9.30588 11.5278 9.30588H6.66667C6.28314 9.30588 5.97222 8.99497 5.97222 8.61144Z" fill="#161C24" fill-opacity="0.9"/>
<path d="M6.66667 10.6948C6.28314 10.6948 5.97222 11.0057 5.97222 11.3892C5.97222 11.7727 6.28314 12.0837 6.66667 12.0837H11.5278C11.9113 12.0837 12.2222 11.7727 12.2222 11.3892C12.2222 11.0057 11.9113 10.6948 11.5278 10.6948H6.66667Z" fill="#161C24" fill-opacity="0.9"/>
</svg>
