<svg width="20" height="20" viewBox="0 0 20 20" fill="none" xmlns="http://www.w3.org/2000/svg">
<path fill-rule="evenodd" clip-rule="evenodd" d="M3.33301 16.2503C3.33301 13.5654 5.5092 11.3892 8.19412 11.3892H12.3608C15.0457 11.3892 17.2219 13.5654 17.2219 16.2503V16.9448C17.2219 17.2468 17.0267 17.5141 16.7391 17.6062L16.5275 16.9448C16.7391 17.6062 16.7393 17.6061 16.7391 17.6062L16.7373 17.6068L16.7347 17.6076L16.7271 17.61L16.7023 17.6175C16.6816 17.6238 16.6524 17.6324 16.6148 17.643C16.5396 17.6642 16.4308 17.6934 16.289 17.728C16.0054 17.7971 15.5895 17.8874 15.0454 17.9772C13.9572 18.1567 12.3569 18.3337 10.2775 18.3337C8.19797 18.3337 6.59766 18.1567 5.50948 17.9772C4.96545 17.8874 4.54955 17.7971 4.26589 17.728C4.12406 17.6934 4.0153 17.6642 3.94011 17.643C3.90252 17.6324 3.87332 17.6238 3.85258 17.6175L3.82783 17.61L3.82022 17.6076L3.81761 17.6068L3.81661 17.6064C3.81641 17.6064 3.8158 17.6062 4.02745 16.9448L3.8158 17.6062C3.52818 17.5141 3.33301 17.2468 3.33301 16.9448V16.2503ZM4.7219 16.4088C4.96788 16.4657 5.30656 16.536 5.73552 16.6068C6.75239 16.7745 8.27707 16.9448 10.2775 16.9448C12.2778 16.9448 13.8025 16.7745 14.8194 16.6068C15.2483 16.536 15.587 16.4657 15.833 16.4088V16.2503C15.833 14.3325 14.2786 12.7781 12.3608 12.7781H8.19412C6.27626 12.7781 4.7219 14.3325 4.7219 16.2503V16.4088Z" fill="#161C24" fill-opacity="0.4"/>
<path fill-rule="evenodd" clip-rule="evenodd" d="M10.2775 3.05588C8.74362 3.05588 7.49967 4.29983 7.49967 5.83366C7.49967 6.61961 7.825 7.51345 8.36897 8.2077C8.91502 8.90462 9.60108 9.30588 10.2775 9.30588C10.9538 9.30588 11.6399 8.90462 12.1859 8.2077C12.7299 7.51345 13.0552 6.61961 13.0552 5.83366C13.0552 4.29983 11.8113 3.05588 10.2775 3.05588ZM6.11079 5.83366C6.11079 3.53277 7.97656 1.66699 10.2775 1.66699C12.5783 1.66699 14.4441 3.53277 14.4441 5.83366C14.4441 6.96506 13.992 8.15456 13.2792 9.06431C12.5685 9.97138 11.5184 10.6948 10.2775 10.6948C9.03646 10.6948 7.98641 9.97138 7.2757 9.06431C6.56289 8.15456 6.11079 6.96506 6.11079 5.83366Z" fill="#161C24" fill-opacity="0.4"/>
</svg>
