<svg width="20" height="20" viewBox="0 0 20 20" fill="none" xmlns="http://www.w3.org/2000/svg">
<path fill-rule="evenodd" clip-rule="evenodd" d="M10.6439 2.89003C11.215 2.14579 12.1138 1.66699 13.1253 1.66699C14.8512 1.66699 16.2503 3.0661 16.2503 4.79199V5.48644C16.2503 5.94477 16.1516 6.38005 15.9743 6.7722L17.3383 7.59056C17.9564 7.96078 18.3337 8.62838 18.3337 9.34751V12.7781H15.1786C15.4213 13.175 15.5559 13.637 15.5559 14.1176V17.6392H1.66699V14.1176C1.66699 13.2148 2.14081 12.378 2.915 11.9143L5.3208 10.473C4.77177 9.76724 4.44477 8.88025 4.44477 7.91699V6.5281C4.44477 4.22721 6.31054 2.36144 8.61144 2.36144C9.34941 2.36144 10.0426 2.55337 10.6439 2.89003ZM11.7264 3.76094C12.0427 3.33246 12.5513 3.05588 13.1253 3.05588C14.0841 3.05588 14.8614 3.83316 14.8614 4.79199V5.48644C14.8614 6.44527 14.0841 7.22255 13.1253 7.22255C13.0034 7.22255 12.8884 7.21086 12.7781 7.18802V6.5281C12.7781 5.46614 12.3806 4.49686 11.7264 3.76094ZM6.39728 11.4472L3.62874 13.1057C3.27377 13.3184 3.05588 13.7025 3.05588 14.1176V16.2503H14.167V14.1176C14.167 13.7035 13.9493 13.319 13.5937 13.1054L10.8256 11.4472C10.1841 11.8504 9.42496 12.0837 8.61144 12.0837C7.79791 12.0837 7.03878 11.8504 6.39728 11.4472ZM11.9021 10.473L13.4314 11.3892H16.9448V9.34751C16.9448 9.11539 16.8232 8.90095 16.6249 8.78223L15.1289 7.88466C14.5865 8.33835 13.8878 8.61144 13.1253 8.61144C12.9885 8.61144 12.855 8.60291 12.7246 8.5862C12.611 9.28964 12.3213 9.93415 11.9021 10.473ZM5.83366 6.5281C5.83366 4.99427 7.07761 3.75033 8.61144 3.75033C10.1453 3.75033 11.3892 4.99427 11.3892 6.5281V7.91699C11.3892 9.45082 10.1453 10.6948 8.61144 10.6948C7.07761 10.6948 5.83366 9.45082 5.83366 7.91699V6.5281Z" fill="#161C24" fill-opacity="0.9"/>
</svg>
