<svg width="20" height="20" viewBox="0 0 20 20" fill="none" xmlns="http://www.w3.org/2000/svg">
<path fill-rule="evenodd" clip-rule="evenodd" d="M9.44572 2.70378C9.16331 2.56959 8.85447 2.49997 8.5418 2.5H5.08538L8.38402 7.41288H6.73076L4.97616 5.30736H1.66699L3.01624 11.379C3.12002 11.8458 3.37964 12.2634 3.75238 12.5631C4.12512 12.8627 4.58877 13.0266 5.06701 13.0276L8 13.0276L5.19264 17.9405H8.48748C8.82259 17.9403 9.15282 17.8602 9.45073 17.7068C9.74864 17.5533 10.0056 17.331 10.2003 17.0583L13.0797 13.0276H15.5199C15.8898 13.0335 16.2572 12.9653 16.6003 12.8268C16.9456 12.6875 17.2592 12.4801 17.5225 12.2168C17.7858 11.9535 17.9932 11.6399 18.1325 11.2946C18.2702 10.9533 18.3385 10.5881 18.3334 10.2202C18.3385 9.85237 18.2702 9.48713 18.1325 9.14587C17.9932 8.80059 17.7858 8.48694 17.5225 8.22368C17.2592 7.96041 16.9456 7.75293 16.6003 7.61364C16.2572 7.47522 15.8898 7.40696 15.5199 7.41288H13.5434L10.1746 3.27588C9.97715 3.03342 9.72816 2.83799 9.44572 2.70378ZM11.7332 7.41288L9.08625 4.16231C9.02043 4.08151 8.93741 4.01633 8.84328 3.97161C8.74913 3.92687 8.64621 3.90367 8.54197 3.90368H7.71858L10.0748 7.41288H11.7332ZM16.9297 10.2072L17.6315 10.2202L16.9297 10.2332C16.9331 10.4168 16.8995 10.5992 16.8308 10.7695C16.7621 10.9397 16.6598 11.0944 16.53 11.2242C16.4001 11.3541 16.2454 11.4564 16.0752 11.5251C15.9049 11.5938 15.7225 11.6274 15.5389 11.624L15.5324 11.6239H12.3574L9.05786 16.2427C8.99296 16.3336 8.9073 16.4077 8.808 16.4589C8.7087 16.51 8.59862 16.5367 8.48692 16.5368H7.61143L10.4188 11.6239H5.06954C4.91031 11.6234 4.75596 11.5689 4.63185 11.4691C4.50762 11.3692 4.42107 11.23 4.38647 11.0744L3.41684 6.71104H4.31871L6.07331 8.81655H15.5259V8.11472L15.5389 8.81643C15.7225 8.81304 15.9049 8.84669 16.0752 8.91538C16.2454 8.98408 16.4001 9.0864 16.53 9.21623C16.6598 9.34606 16.7621 9.50074 16.8308 9.67101C16.8995 9.84129 16.9331 10.0237 16.9297 10.2072Z" fill="#161C24" fill-opacity="0.9"/>
</svg>
