<svg width="16" height="16" viewBox="0 0 16 16" fill="none" xmlns="http://www.w3.org/2000/svg">
<path d="M13.8693 6.09812L8.07227 1.46052C7.96946 1.3782 7.84167 1.33334 7.70996 1.33334C7.57825 1.33334 7.45046 1.3782 7.34765 1.46052L1.55064 6.09812C1.48278 6.15246 1.428 6.22136 1.39037 6.29973C1.35274 6.3781 1.33322 6.46393 1.33325 6.55087V14.087C1.33325 14.2407 1.39433 14.3882 1.50304 14.4969C1.61176 14.6056 1.75921 14.6667 1.91295 14.6667H5.97086V10.0291H9.44906V14.6667H13.507C13.6607 14.6667 13.8082 14.6056 13.9169 14.4969C14.0256 14.3882 14.0867 14.2407 14.0867 14.087V6.55087C14.0867 6.46393 14.0672 6.3781 14.0295 6.29973C13.9919 6.22136 13.9371 6.15246 13.8693 6.09812V6.09812Z" fill="#161C24" fill-opacity="0.8"/>
</svg>
