<svg width="20" height="20" viewBox="0 0 20 20" fill="none" xmlns="http://www.w3.org/2000/svg">
<path fill-rule="evenodd" clip-rule="evenodd" d="M2.39163 1.66699C1.99142 1.66699 1.66699 1.99142 1.66699 2.39163C1.66699 2.79184 1.99142 3.11627 2.39163 3.11627H3.93111L5.29654 13.357C5.34454 13.717 5.65163 13.9858 6.01482 13.9858H16.1597C16.5052 13.9858 16.8026 13.742 16.8703 13.4033L18.3196 6.15693C18.3622 5.94405 18.307 5.72329 18.1694 5.5554C18.0318 5.38751 17.8261 5.29018 17.609 5.29018H5.68307L5.28382 2.29586C5.23582 1.93585 4.92873 1.66699 4.56554 1.66699H2.39163ZM6.64925 12.5366L5.8763 6.73945H16.7251L15.5657 12.5366H6.64925Z" fill="#161C24" fill-opacity="0.9"/>
<path d="M6.01482 15.4351C5.2144 15.4351 4.56554 16.084 4.56554 16.8844C4.56554 17.6848 5.2144 18.3337 6.01482 18.3337C6.81523 18.3337 7.46409 17.6848 7.46409 16.8844C7.46409 16.084 6.81523 15.4351 6.01482 15.4351Z" fill="#161C24" fill-opacity="0.9"/>
<path d="M14.7105 16.8844C14.7105 16.084 15.3593 15.4351 16.1597 15.4351C16.9602 15.4351 17.609 16.084 17.609 16.8844C17.609 17.6848 16.9602 18.3337 16.1597 18.3337C15.3593 18.3337 14.7105 17.6848 14.7105 16.8844Z" fill="#161C24" fill-opacity="0.9"/>
</svg>
