<svg width="16" height="16" viewBox="0 0 16 16" fill="none" xmlns="http://www.w3.org/2000/svg">
<path d="M9.33332 1.33325H3.22221C3.07487 1.33325 2.93356 1.39178 2.82937 1.49597C2.72519 1.60016 2.66666 1.74147 2.66666 1.88881V14.111C2.66666 14.2584 2.72519 14.3997 2.82937 14.5039C2.93356 14.6081 3.07487 14.6666 3.22221 14.6666H13.2222C13.3696 14.6666 13.5109 14.6081 13.615 14.5039C13.7192 14.3997 13.7778 14.2584 13.7778 14.111V5.7777H9.88888C9.74154 5.7777 9.60023 5.71916 9.49604 5.61498C9.39185 5.51079 9.33332 5.36948 9.33332 5.22214V1.33325ZM4.6111 10.7777H11.8333C11.907 10.7777 11.9776 10.807 12.0297 10.8591C12.0818 10.9111 12.1111 10.9818 12.1111 11.0555V11.611C12.1111 11.6847 12.0818 11.7554 12.0297 11.8074C11.9776 11.8595 11.907 11.8888 11.8333 11.8888H4.6111C4.53743 11.8888 4.46678 11.8595 4.41468 11.8074C4.36259 11.7554 4.33332 11.6847 4.33332 11.611V11.0555C4.33332 10.9818 4.36259 10.9111 4.41468 10.8591C4.46678 10.807 4.53743 10.7777 4.6111 10.7777ZM4.6111 7.99992H11.8333C11.907 7.99992 11.9776 8.02918 12.0297 8.08128C12.0818 8.13337 12.1111 8.20403 12.1111 8.2777V8.83325C12.1111 8.90692 12.0818 8.97758 12.0297 9.02967C11.9776 9.08176 11.907 9.11103 11.8333 9.11103H4.6111C4.53743 9.11103 4.46678 9.08176 4.41468 9.02967C4.36259 8.97758 4.33332 8.90692 4.33332 8.83325V8.2777C4.33332 8.20403 4.36259 8.13337 4.41468 8.08128C4.46678 8.02918 4.53743 7.99992 4.6111 7.99992ZM7.38888 6.33325H4.6111C4.53743 6.33325 4.46678 6.30399 4.41468 6.25189C4.36259 6.1998 4.33332 6.12915 4.33332 6.05547V5.49992C4.33332 5.42625 4.36259 5.35559 4.41468 5.3035C4.46678 5.25141 4.53743 5.22214 4.6111 5.22214H7.38888C7.46255 5.22214 7.5332 5.25141 7.5853 5.3035C7.63739 5.35559 7.66666 5.42625 7.66666 5.49992V6.05547C7.66666 6.12915 7.63739 6.1998 7.5853 6.25189C7.5332 6.30399 7.46255 6.33325 7.38888 6.33325Z" fill="#161C24" fill-opacity="0.64"/>
<path d="M13.4522 4.66658H10.4444V1.65881L13.4522 4.66658Z" fill="#161C24" fill-opacity="0.64"/>
</svg>
