<svg width="28" height="28" viewBox="0 0 28 28" fill="none" xmlns="http://www.w3.org/2000/svg">
<path fill-rule="evenodd" clip-rule="evenodd" d="M3.5 5.83301V22.1663C3.5 24.0993 5.067 25.6663 7 25.6663H21C22.933 25.6663 24.5 24.0993 24.5 22.1663V5.83301C24.5 3.90001 22.933 2.33301 21 2.33301H7C5.067 2.33301 3.5 3.90001 3.5 5.83301ZM19.8333 4.66634H21C21.6443 4.66634 22.1667 5.18868 22.1667 5.83301V7.58301H19.8333V4.66634ZM17.5 4.66634H10.5V12.833H17.5V4.66634ZM8.16667 4.66634V7.58301H5.83333V5.83301C5.83333 5.18868 6.35567 4.66634 7 4.66634H8.16667ZM8.16667 12.833V9.91634H5.83333V12.833H8.16667ZM5.83333 20.4163V22.1663C5.83333 22.8107 6.35567 23.333 7 23.333H8.16667V20.4163H5.83333ZM8.16667 18.083H5.83333V15.1663H8.16667V18.083ZM10.5 23.333H17.5V15.1663H10.5V23.333ZM22.1667 9.91634V12.833H19.8333V9.91634H22.1667ZM19.8333 15.1663V18.083H22.1667V15.1663H19.8333ZM22.1667 22.1663V20.4163H19.8333V23.333H21C21.6443 23.333 22.1667 22.8107 22.1667 22.1663Z" fill="#161C24"/>
</svg>
