<svg width="20" height="20" viewBox="0 0 20 20" fill="none" xmlns="http://www.w3.org/2000/svg">
<path fill-rule="evenodd" clip-rule="evenodd" d="M1.66699 1.66699H10.3141L17.6677 9.01981C17.6676 9.01978 17.6677 9.01984 17.6677 9.01981C17.8788 9.23085 18.0463 9.48148 18.1606 9.75725C18.2748 10.033 18.3337 10.3287 18.3337 10.6272C18.3337 10.9257 18.2748 11.2213 18.1606 11.4971C18.0463 11.7729 17.8789 12.0234 17.6678 12.2345M17.6678 12.2345L12.2348 17.6675C12.2347 17.6676 12.2349 17.6674 12.2348 17.6675C12.0238 17.8786 11.7731 18.0463 11.4975 18.1606C11.2217 18.275 10.9261 18.3339 10.6276 18.334C10.3291 18.3341 10.0335 18.2754 9.75761 18.1613C9.48177 18.0471 9.23113 17.8797 9.02 17.6686L1.66699 10.314V1.66699M11.1631 16.5964L16.5964 11.1631C16.6668 11.0927 16.7227 11.0091 16.7608 10.9172C16.7989 10.8252 16.8185 10.7267 16.8185 10.6272C16.8185 10.5277 16.7989 10.4291 16.7608 10.3372C16.7227 10.2453 16.6669 10.1617 16.5965 10.0914L9.68653 3.18214H3.18214V9.68655L10.0912 16.5971C10.1616 16.6674 10.2451 16.7232 10.3371 16.7613C10.429 16.7994 10.5276 16.8189 10.6271 16.8189C10.7266 16.8189 10.8251 16.7992 10.917 16.7611C11.009 16.723 11.0928 16.6668 11.1631 16.5964Z" fill="#161C24" fill-opacity="0.9"/>
<path fill-rule="evenodd" clip-rule="evenodd" d="M6.97001 6.21243C6.55161 6.21243 6.21243 6.55161 6.21243 6.97001C6.21243 7.3884 6.55161 7.72758 6.97001 7.72758C7.3884 7.72758 7.72758 7.3884 7.72758 6.97001C7.72758 6.55161 7.3884 6.21243 6.97001 6.21243ZM4.69729 6.97001C4.69729 5.71482 5.71482 4.69729 6.97001 4.69729C8.22519 4.69729 9.24273 5.71482 9.24273 6.97001C9.24273 8.22519 8.22519 9.24273 6.97001 9.24273C5.71482 9.24273 4.69729 8.22519 4.69729 6.97001Z" fill="#161C24" fill-opacity="0.9"/>
</svg>
