<svg width="20" height="20" viewBox="0 0 20 20" fill="none" xmlns="http://www.w3.org/2000/svg">
<path fill-rule="evenodd" clip-rule="evenodd" d="M9.67121 7.22255C8.13709 7.22255 6.89343 8.4662 6.89343 10.0003C6.89343 11.5345 8.13709 12.7781 9.67121 12.7781C11.2053 12.7781 12.449 11.5345 12.449 10.0003C12.449 8.4662 11.2053 7.22255 9.67121 7.22255ZM8.28232 10.0003C8.28232 9.23326 8.90415 8.61144 9.67121 8.61144C10.4383 8.61144 11.0601 9.23326 11.0601 10.0003C11.0601 10.7674 10.4383 11.3892 9.67121 11.3892C8.90415 11.3892 8.28232 10.7674 8.28232 10.0003Z" fill="#161C24" fill-opacity="0.9"/>
<path fill-rule="evenodd" clip-rule="evenodd" d="M8.28232 1.66699C7.93211 1.66699 7.63669 1.92777 7.59324 2.27528L7.35297 4.19693C6.79804 4.42005 6.27804 4.7218 5.80899 5.09289L4.02032 4.33827C3.69764 4.20214 3.32409 4.32758 3.14898 4.63087L1.76009 7.03643C1.58499 7.3397 1.66309 7.7259 1.94228 7.9373L3.48624 9.10636C3.39958 9.69918 3.39958 10.3015 3.48624 10.8943L1.94228 12.0634C1.66309 12.2747 1.58499 12.6609 1.76009 12.9642L3.14898 15.3698C3.32409 15.6731 3.69764 15.7985 4.02032 15.6624L5.80899 14.9078C6.27804 15.2788 6.79804 15.5806 7.35297 15.8037L7.59324 17.7254C7.63669 18.0729 7.93211 18.3337 8.28232 18.3337H11.0601C11.4103 18.3337 11.7057 18.0729 11.7492 17.7254L11.9895 15.8037C12.5444 15.5806 13.0644 15.2788 13.5334 14.9078L15.3221 15.6624C15.6448 15.7985 16.0183 15.6731 16.1934 15.3698L17.5823 12.9642C17.7574 12.6609 17.6793 12.2747 17.4001 12.0634L15.8557 10.8939C15.8987 10.5987 15.9206 10.3005 15.9212 10.0018V9.9989C15.9206 9.70014 15.8987 9.40199 15.8557 9.10673L17.4001 7.9373C17.6793 7.7259 17.7574 7.3397 17.5823 7.03643L16.1934 4.63087C16.0183 4.32758 15.6448 4.20214 15.3221 4.33827L13.5334 5.09289C13.0644 4.7218 12.5444 4.42005 11.9895 4.19693L11.7492 2.27528C11.7057 1.92777 11.4103 1.66699 11.0601 1.66699H8.28232ZM8.67835 4.79135L8.89534 3.05588H10.4471L10.6641 4.79135C10.6976 5.05963 10.8838 5.28406 11.1413 5.36653C11.8094 5.58051 12.4231 5.93679 12.9401 6.41082C13.1403 6.59435 13.4291 6.64434 13.6793 6.53877L15.2972 5.85623L16.073 7.20004L14.677 8.2571C14.4609 8.42075 14.3597 8.6952 14.418 8.95996C14.4932 9.30167 14.5315 9.65045 14.5323 10.0003C14.5315 10.3502 14.4932 10.699 14.418 11.0407C14.3597 11.3054 14.4609 11.5799 14.677 11.7436L16.073 12.8006L15.2972 14.1444L13.6793 13.4619C13.4291 13.3563 13.1403 13.4063 12.9401 13.5898C12.4231 14.0639 11.8094 14.4201 11.1413 14.6341C10.8838 14.7166 10.6976 14.941 10.6641 15.2093L10.4471 16.9448H8.89534L8.67835 15.2093C8.6448 14.941 8.45859 14.7166 8.2011 14.6341C7.53306 14.4201 6.91936 14.0639 6.4023 13.5898C6.20211 13.4063 5.91331 13.3563 5.66308 13.4619L4.04526 14.1444L3.26938 12.8006L4.66542 11.7436C4.88195 11.5796 4.98303 11.3045 4.92413 11.0393C4.77213 10.355 4.77213 9.64565 4.92413 8.96132C4.98303 8.69619 4.88195 8.42105 4.66542 8.2571L3.26938 7.20004L4.04526 5.85623L5.66308 6.53877C5.91331 6.64434 6.20211 6.59435 6.4023 6.41082C6.91936 5.93679 7.53306 5.58051 8.2011 5.36653C8.45859 5.28406 8.6448 5.05963 8.67835 4.79135Z" fill="#161C24" fill-opacity="0.9"/>
</svg>
