<svg width="20" height="20" viewBox="0 0 20 20" fill="none" xmlns="http://www.w3.org/2000/svg">
<path fill-rule="evenodd" clip-rule="evenodd" d="M3.27126 2.3505C2.44342 2.76442 1.66699 3.46473 1.66699 4.44477V12.7781C1.66699 13.7582 2.44331 14.4585 3.27118 14.8724C4.14055 15.3071 5.293 15.5559 6.5281 15.5559C7.26748 15.5559 7.97601 15.4667 8.61144 15.3026V15.5559C8.61144 16.5359 9.38776 17.2363 10.2156 17.6502C11.085 18.0849 12.2374 18.3337 13.4725 18.3337C14.7077 18.3337 15.8601 18.0849 16.7295 17.6502C17.5573 17.2363 18.3337 16.5359 18.3337 15.5559V10.0003C18.3337 9.02029 17.5572 8.31998 16.7294 7.90606C15.86 7.47137 14.7076 7.22255 13.4725 7.22255C12.7272 7.22255 12.012 7.31317 11.3708 7.48058C11.3829 7.39684 11.3892 7.31083 11.3892 7.22255V4.44477C11.3892 3.46473 10.6128 2.76442 9.78495 2.3505C8.91557 1.91581 7.76313 1.66699 6.5281 1.66699C5.29308 1.66699 4.14064 1.91581 3.27126 2.3505ZM3.89239 3.59276C3.21219 3.93286 3.05588 4.27422 3.05588 4.44477C3.05588 4.61532 3.21219 4.95668 3.89239 5.29678C4.53105 5.61611 5.46194 5.83366 6.5281 5.83366C7.59426 5.83366 8.52516 5.61611 9.16382 5.29678C9.84401 4.95668 10.0003 4.61532 10.0003 4.44477C10.0003 4.27422 9.84401 3.93286 9.16382 3.59276C8.52516 3.27343 7.59426 3.05588 6.5281 3.05588C5.46194 3.05588 4.53105 3.27343 3.89239 3.59276ZM8.6298 9.74234C8.61774 9.82606 8.61144 9.91206 8.61144 10.0003V11.0773C8.03217 11.2698 7.31624 11.3892 6.5281 11.3892C5.46182 11.3892 4.53093 11.1717 3.89231 10.8524C3.2122 10.5123 3.05588 10.171 3.05588 10.0003V9.20182C3.12693 9.24235 3.19886 9.28069 3.27118 9.31686C4.14055 9.75154 5.293 10.0003 6.5281 10.0003C7.27346 10.0003 7.9887 9.90972 8.6298 9.74234ZM10.0003 11.9795C10.0714 12.0201 10.1434 12.0584 10.2157 12.0946C11.0851 12.5293 12.2375 12.7781 13.4725 12.7781C14.7076 12.7781 15.86 12.5293 16.7294 12.0946C16.8017 12.0584 16.8737 12.0201 16.9448 11.9795V12.7781C16.9448 12.9487 16.7885 13.2901 16.1083 13.6302C15.4697 13.9495 14.5388 14.167 13.4725 14.167C12.4063 14.167 11.4754 13.9495 10.8368 13.6302C10.1566 13.2901 10.0003 12.9487 10.0003 12.7781V11.9795ZM16.9448 10.0003C16.9448 10.1709 16.7885 10.5122 16.1083 10.8523C15.4696 11.1717 14.5387 11.3892 13.4725 11.3892C12.4064 11.3892 11.4755 11.1717 10.8368 10.8523C10.1566 10.5122 10.0003 10.1709 10.0003 10.0003C10.0003 9.82977 10.1566 9.48841 10.8368 9.14832C11.4755 8.82899 12.4064 8.61144 13.4725 8.61144C14.5387 8.61144 15.4696 8.82899 16.1083 9.14832C16.7885 9.48841 16.9448 9.82977 16.9448 10.0003ZM6.5281 12.7781C7.26785 12.7781 7.97616 12.6886 8.61144 12.5243V13.8557C8.0327 14.0479 7.3165 14.167 6.5281 14.167C5.46182 14.167 4.53093 13.9495 3.89231 13.6302C3.2122 13.2901 3.05588 12.9487 3.05588 12.7781V11.9796C3.12693 12.0201 3.19886 12.0585 3.27118 12.0946C4.14055 12.5293 5.293 12.7781 6.5281 12.7781ZM10.8368 16.4079C10.1566 16.0679 10.0003 15.7265 10.0003 15.5559V14.7574C10.0714 14.7979 10.1433 14.8362 10.2156 14.8724C11.085 15.3071 12.2374 15.5559 13.4725 15.5559C14.7077 15.5559 15.8601 15.3071 16.7295 14.8724C16.8018 14.8363 16.8737 14.7979 16.9448 14.7574V15.5559C16.9448 15.7265 16.7885 16.0679 16.1083 16.4079C15.4697 16.7272 14.5388 16.9448 13.4725 16.9448C12.4063 16.9448 11.4754 16.7272 10.8368 16.4079ZM9.16389 8.07459C9.84401 7.73454 10.0003 7.39319 10.0003 7.22255V6.42396C9.92925 6.46451 9.85729 6.50287 9.78495 6.53904C8.91557 6.97373 7.76313 7.22255 6.5281 7.22255C5.29308 7.22255 4.14064 6.97373 3.27126 6.53904C3.19891 6.50287 3.12696 6.4645 3.05588 6.42396V7.22255C3.05588 7.39319 3.2122 7.73454 3.89231 8.07459C4.53093 8.3939 5.46182 8.61144 6.5281 8.61144C7.59439 8.61144 8.52527 8.3939 9.16389 8.07459Z" fill="#161C24" fill-opacity="0.9"/>
</svg>
