<svg width="20" height="20" viewBox="0 0 20 20" fill="none" xmlns="http://www.w3.org/2000/svg">
<path d="M4.99984 6.66634C4.99984 6.2061 5.37293 5.83301 5.83317 5.83301H14.1665C14.6267 5.83301 14.9998 6.2061 14.9998 6.66634C14.9998 7.12658 14.6267 7.49967 14.1665 7.49967H5.83317C5.37293 7.49967 4.99984 7.12658 4.99984 6.66634Z" fill="#667085"/>
<path d="M4.99984 9.99967C4.99984 9.53944 5.37293 9.16634 5.83317 9.16634H9.99984C10.4601 9.16634 10.8332 9.53944 10.8332 9.99967C10.8332 10.4599 10.4601 10.833 9.99984 10.833H5.83317C5.37293 10.833 4.99984 10.4599 4.99984 9.99967Z" fill="#667085"/>
<path fill-rule="evenodd" clip-rule="evenodd" d="M1.6665 12.083C1.6665 13.4637 2.78579 14.583 4.1665 14.583H6.6665V16.8295C6.6665 17.484 7.38646 17.883 7.9415 17.5361L12.6665 14.583H15.8332C17.2139 14.583 18.3332 13.4637 18.3332 12.083V4.58301C18.3332 3.2023 17.2139 2.08301 15.8332 2.08301H4.1665C2.78579 2.08301 1.6665 3.2023 1.6665 4.58301V12.083ZM8.33317 15.3259V12.9163H4.1665C3.70627 12.9163 3.33317 12.5432 3.33317 12.083V4.58301C3.33317 4.12277 3.70627 3.74967 4.1665 3.74967H15.8332C16.2934 3.74967 16.6665 4.12277 16.6665 4.58301V12.083C16.6665 12.5432 16.2934 12.9163 15.8332 12.9163H12.1885L8.33317 15.3259Z" fill="#667085"/>
</svg>
