<svg width="20" height="20" viewBox="0 0 20 20" fill="none" xmlns="http://www.w3.org/2000/svg">
<g clip-path="url(#clip0_21_273259)">
<path fill-rule="evenodd" clip-rule="evenodd" d="M16.6443 15.5494L14.1861 13.0912L12.5643 15.2389L11.9751 15.0063L11.9713 15.0048L11.964 15.0019L11.9388 14.9917C11.9175 14.9831 11.8872 14.9706 11.8489 14.9545C11.7722 14.9223 11.6629 14.8753 11.5278 14.8145C11.2581 14.6929 10.8834 14.515 10.459 14.2874C9.62205 13.8386 8.54176 13.1704 7.70099 12.3297C6.86021 11.4889 6.19201 10.4085 5.74313 9.57153C5.51552 9.14711 5.33755 8.77241 5.21599 8.50267C5.15512 8.3676 5.10814 8.25829 5.07591 8.18158C5.0598 8.14321 5.04735 8.11294 5.03868 8.09164L5.02852 8.06649L5.02559 8.05915L5.02434 8.05599L4.79146 7.46613L6.9392 5.84431L4.48104 3.38616C3.99362 4.18265 3.36654 5.53715 3.36253 7.22129C3.35837 8.96782 4.02334 11.178 6.43797 13.5927C8.85262 16.0073 11.0628 16.6722 12.8093 16.668C14.4934 16.664 15.8478 16.0368 16.6443 15.5494ZM6.82718 8.01737L7.94356 7.17436C8.75121 6.56448 8.83334 5.38143 8.11771 4.6658L5.58762 2.13572C4.92966 1.47776 3.74215 1.44537 3.15584 2.36211C2.56243 3.28996 1.70112 5.01133 1.69587 7.21733C1.69055 9.45339 2.5655 12.0772 5.25946 14.7712C7.95344 17.4652 10.5773 18.3401 12.8133 18.3347C15.0193 18.3294 16.7406 17.468 17.6684 16.8746C18.5851 16.2882 18.5527 15.1008 17.8947 14.4428L15.3646 11.9127C14.649 11.1971 13.4659 11.2792 12.856 12.0869L12.013 13.2032C11.7974 13.1022 11.5346 12.973 11.2467 12.8186C10.4664 12.4002 9.55127 11.8229 8.8795 11.1511C8.20772 10.4794 7.63041 9.5642 7.21191 8.78384C7.05745 8.49582 6.92821 8.23298 6.82718 8.01737Z" fill="#667085"/>
</g>
<defs>
<clipPath id="clip0_21_273259">
<rect width="20" height="20" fill="white"/>
</clipPath>
</defs>
</svg>
