<svg width="32" height="32" viewBox="0 0 32 32" fill="none" xmlns="http://www.w3.org/2000/svg">
<path d="M11.4312 3.86663L22.6646 15.0666C22.7979 15.2 22.8921 15.3444 22.9473 15.5C23.0033 15.6555 23.0312 15.8222 23.0312 16C23.0312 16.1777 23.0033 16.3444 22.9473 16.5C22.8921 16.6555 22.7979 16.8 22.6646 16.9333L11.4312 28.1666C11.1201 28.4777 10.7312 28.6333 10.2646 28.6333C9.79792 28.6333 9.39792 28.4666 9.06458 28.1333C8.73125 27.8 8.56458 27.4111 8.56458 26.9666C8.56458 26.5222 8.73125 26.1333 9.06458 25.8L18.8646 16L9.06458 6.19997C8.75347 5.88885 8.59792 5.50574 8.59792 5.05063C8.59792 4.59463 8.76458 4.19997 9.09792 3.86663C9.43125 3.5333 9.82014 3.36663 10.2646 3.36663C10.709 3.36663 11.0979 3.5333 11.4312 3.86663Z" fill="#121212"/>
</svg>
