<svg width="24" height="24" viewBox="0 0 24 24" fill="none" xmlns="http://www.w3.org/2000/svg">
<path fill-rule="evenodd" clip-rule="evenodd" d="M9.6755 7.65674L8.02252 3.35898C7.77059 2.70398 8.25408 2 8.95586 2H15.0438C15.7456 2 16.2291 2.70398 15.9771 3.35898L14.3241 7.65678L16.6944 16.1106C16.8839 16.7865 16.7052 17.5123 16.2234 18.023L12.7272 21.729C12.3325 22.1473 11.6671 22.1473 11.2724 21.729L7.77621 18.023C7.29448 17.5123 7.11574 16.7865 7.30526 16.1106L9.6755 7.65674ZM11.3734 6.5L10.4119 4H13.5878L12.6262 6.5H11.3734ZM11.5162 8.5L9.231 16.6505L11.9998 19.5855L14.7686 16.6505L12.4834 8.5H11.5162Z" fill="#13B2E4"/>
</svg>
