<svg width="20" height="20" viewBox="0 0 20 20" fill="none" xmlns="http://www.w3.org/2000/svg">
<path d="M8.33317 8.12533C8.79341 8.12533 9.1665 8.49842 9.1665 8.95866V13.9587C9.1665 14.4189 8.79341 14.792 8.33317 14.792C7.87293 14.792 7.49984 14.4189 7.49984 13.9587V8.95866C7.49984 8.49842 7.87293 8.12533 8.33317 8.12533Z" fill="#667085"/>
<path d="M12.4998 8.95866C12.4998 8.49842 12.1267 8.12533 11.6665 8.12533C11.2063 8.12533 10.8332 8.49842 10.8332 8.95866V13.9587C10.8332 14.4189 11.2063 14.792 11.6665 14.792C12.1267 14.792 12.4998 14.4189 12.4998 13.9587V8.95866Z" fill="#667085"/>
<path fill-rule="evenodd" clip-rule="evenodd" d="M14.9998 5.00033V4.16699C14.9998 2.78628 13.8805 1.66699 12.4998 1.66699H7.49984C6.11913 1.66699 4.99984 2.78628 4.99984 4.16699V5.00033H3.74984C3.2896 5.00033 2.9165 5.37342 2.9165 5.83366C2.9165 6.2939 3.2896 6.66699 3.74984 6.66699H4.1665V15.8337C4.1665 17.2144 5.28579 18.3337 6.6665 18.3337H13.3332C14.7139 18.3337 15.8332 17.2144 15.8332 15.8337V6.66699H16.2498C16.7101 6.66699 17.0832 6.2939 17.0832 5.83366C17.0832 5.37342 16.7101 5.00033 16.2498 5.00033H14.9998ZM12.4998 3.33366H7.49984C7.0396 3.33366 6.6665 3.70676 6.6665 4.16699V5.00033H13.3332V4.16699C13.3332 3.70676 12.9601 3.33366 12.4998 3.33366ZM14.1665 6.66699H5.83317V15.8337C5.83317 16.2939 6.20627 16.667 6.6665 16.667H13.3332C13.7934 16.667 14.1665 16.2939 14.1665 15.8337V6.66699Z" fill="#667085"/>
</svg>
