<svg width="20" height="20" viewBox="0 0 20 20" fill="none" xmlns="http://www.w3.org/2000/svg">
<path fill-rule="evenodd" clip-rule="evenodd" d="M10 9.16699C12.0711 9.16699 13.75 7.48806 13.75 5.41699C13.75 3.34592 12.0711 1.66699 10 1.66699C7.92893 1.66699 6.25 3.34592 6.25 5.41699C6.25 7.48806 7.92893 9.16699 10 9.16699ZM10 7.50033C11.1506 7.50033 12.0833 6.56759 12.0833 5.41699C12.0833 4.2664 11.1506 3.33366 10 3.33366C8.84941 3.33366 7.91667 4.2664 7.91667 5.41699C7.91667 6.56759 8.84941 7.50033 10 7.50033Z" fill="#667085"/>
<path d="M11.7308 11.667C12.5643 11.667 13.3398 11.9156 13.9871 12.3427C14.3713 12.5961 14.8955 12.6048 15.221 12.2793C15.5464 11.9539 15.5494 11.4206 15.1807 11.1451C14.2185 10.4261 13.0244 10.0003 11.7308 10.0003H8.26923C5.08297 10.0003 2.5 12.5833 2.5 15.7696C2.5 16.7254 3.27489 17.5003 4.23077 17.5003H10C10.4602 17.5003 10.8333 17.1272 10.8333 16.667C10.8333 16.2068 10.4602 15.8337 10 15.8337H4.23077C4.19537 15.8337 4.16667 15.805 4.16667 15.7696C4.16667 13.5038 6.00345 11.667 8.26923 11.667H11.7308Z" fill="#667085"/>
<path d="M18.3346 13.0501C18.6382 12.7042 18.604 12.1777 18.2581 11.8741C17.9122 11.5704 17.3857 11.6047 17.0821 11.9506L14.3141 15.1039L13.1021 14.1398C12.7419 13.8533 12.2177 13.913 11.9312 14.2732C11.6447 14.6334 11.7044 15.1576 12.0646 15.4442L14.2085 17.1496C14.3824 17.288 14.6344 17.2655 14.781 17.0984L18.3346 13.0501Z" fill="#667085"/>
</svg>
