<svg width="24" height="25" viewBox="0 0 24 25" fill="none" xmlns="http://www.w3.org/2000/svg">
<path d="M15 13.166C14.4477 13.166 14 13.6137 14 14.166C14 14.7183 14.4477 15.166 15 15.166H17C17.5523 15.166 18 14.7183 18 14.166C18 13.6137 17.5523 13.166 17 13.166H15Z" fill="#E46A11"/>
<path fill-rule="evenodd" clip-rule="evenodd" d="M20 7.16602C21.1046 7.16602 22 8.06145 22 9.16602V18.666C22 20.3229 20.6569 21.666 19 21.666H5C3.34315 21.666 2 20.3229 2 18.666V6.66602C2 5.00916 3.34315 3.66602 5 3.66602H17C18.6569 3.66602 20 5.00916 20 6.66602V7.16602ZM17 5.66602H5C4.44772 5.66602 4 6.11373 4 6.66602V18.666C4 19.2183 4.44772 19.666 5 19.666H19C19.5523 19.666 20 19.2183 20 18.666V9.16602H9C8.44772 9.16602 8 8.7183 8 8.16602C8 7.61373 8.44772 7.16602 9 7.16602H18V6.66602C18 6.11373 17.5523 5.66602 17 5.66602Z" fill="#E46A11"/>
</svg>
