<svg width="24" height="24" viewBox="0 0 24 24" fill="none" xmlns="http://www.w3.org/2000/svg">
<path d="M9.17174 9.17172C9.56227 8.7812 10.1954 8.7812 10.586 9.17172L12.0002 10.5859L12.7073 9.87884C13.0978 9.48832 13.731 9.48832 14.1215 9.87884C14.512 10.2694 14.512 10.9025 14.1215 11.2931L12.7073 12.7073C12.3168 13.0978 11.6836 13.0978 11.2931 12.7073L11.2898 12.7039L9.17174 10.5859C8.78122 10.1954 8.78122 9.56224 9.17174 9.17172Z" fill="#E46A11"/>
<path fill-rule="evenodd" clip-rule="evenodd" d="M7.9105 2.04123L11.073 4.05375C13.4172 3.7818 15.8587 4.54499 17.657 6.34331C19.4553 8.14163 20.2185 10.5831 19.9466 12.9273L21.9591 16.0898C22.4624 16.8807 22.3489 17.915 21.686 18.5778L18.5778 21.686C17.915 22.3488 16.8807 22.4624 16.0898 21.9591L12.9273 19.9466C10.5831 20.2185 8.14164 19.4553 6.34332 17.657C4.54501 15.8587 3.78182 13.4172 4.05376 11.073L2.04123 7.9105C1.53797 7.11966 1.6515 6.08538 2.31434 5.42254L5.42254 2.31434C6.08538 1.6515 7.11966 1.53797 7.9105 2.04123ZM6.34332 6.34331C5.69199 6.99465 5.17644 7.73035 4.79669 8.51525L3.72855 6.83675L6.83675 3.72855L8.51524 4.79669C7.73035 5.17644 6.99466 5.69198 6.34332 6.34331ZM15.4851 19.2036L17.1636 20.2718L20.2718 17.1636L19.2037 15.4851C18.8239 16.27 18.3084 17.0057 17.657 17.657C17.0057 18.3084 16.27 18.8239 15.4851 19.2036ZM16.2428 16.2428C18.586 13.8997 18.586 10.1007 16.2428 7.75752C13.8997 5.41438 10.1007 5.41438 7.75754 7.75752C5.41439 10.1007 5.41439 13.8997 7.75754 16.2428C10.1007 18.586 13.8997 18.586 16.2428 16.2428Z" fill="#E46A11"/>
</svg>
